<svg xmlns="http://www.w3.org/2000/svg" xmlns:xlink="http://www.w3.org/1999/xlink" id="body_1" preserveAspectRatio="xMinYMin meet" viewBox="0 0 793 1123"><defs><clipPath id="1"><path id="" clip-rule="evenodd" transform="matrix(1 0 0 1 0 0)" d="M0 842L0 -0.25L0 -0.25L595.5 -0.25L595.5 -0.25L595.5 842L595.5 842L0 842z" /></clipPath><clipPath id="2"><path id="" clip-rule="evenodd" transform="matrix(1 0 0 1 0 0)" d="M8.874E-06 842L595.5 842L595.5 842L595.5 -0.25L595.5 -0.25L8.874E-06 -0.25z" /></clipPath><clipPath id="3"><path id="" clip-rule="evenodd" transform="matrix(1 0 0 1 0 0)" d="M8.874E-06 842L595.5 842L595.5 842L595.5 -0.25L595.5 -0.25L8.874E-06 -0.25z" /></clipPath><clipPath id="4"><path id="" clip-rule="evenodd" transform="matrix(1 0 0 1 0 0)" d="M8.874E-06 842L595.5 842L595.5 842L595.5 -0.25L595.5 -0.25L8.874E-06 -0.25z" /></clipPath><clipPath id="5"><path id="" clip-rule="evenodd" transform="matrix(1 0 0 1 0 0)" d="M8.874E-06 842L595.5 842L595.5 842L595.5 -0.25L595.5 -0.25L8.874E-06 -0.25z" /></clipPath><clipPath id="6"><path id="" clip-rule="evenodd" transform="matrix(1 0 0 1 0 0)" d="M8.874E-06 842L595.5 842L595.5 842L595.5 -0.25L595.5 -0.25L8.874E-06 -0.25z" /></clipPath><clipPath id="7"><path id="" clip-rule="evenodd" transform="matrix(1 0 0 1 0 0)" d="M8.874E-06 842L595.5 842L595.5 842L595.5 -0.25L595.5 -0.25L8.874E-06 -0.25z" /></clipPath><clipPath id="8"><path id="" clip-rule="evenodd" transform="matrix(1 0 0 1 0 0)" d="M8.874E-06 842L595.5 842L595.5 842L595.5 -0.25L595.5 -0.25L8.874E-06 -0.25z" /></clipPath><clipPath id="9"><path id="" clip-rule="evenodd" transform="matrix(1 0 0 1 0 0)" d="M8.874E-06 842L595.5 842L595.5 842L595.5 -0.25L595.5 -0.25L8.874E-06 -0.25z" /></clipPath><clipPath id="10"><path id="" clip-rule="evenodd" transform="matrix(1 0 0 1 0 0)" d="M8.874E-06 842L595.5 842L595.5 842L595.5 -0.25L595.5 -0.25L8.874E-06 -0.25z" /></clipPath><clipPath id="11"><path id="" clip-rule="evenodd" transform="matrix(1 0 0 1 0 0)" d="M8.874E-06 842L595.5 842L595.5 842L595.5 -0.25L595.5 -0.25L8.874E-06 -0.25z" /></clipPath><clipPath id="12"><path id="" clip-rule="evenodd" transform="matrix(1 0 0 1 0 0)" d="M8.874E-06 842L595.5 842L595.5 842L595.5 -0.25L595.5 -0.25L8.874E-06 -0.25z" /></clipPath><clipPath id="13"><path id="" clip-rule="evenodd" transform="matrix(1 0 0 1 0 0)" d="M8.874E-06 842L595.5 842L595.5 842L595.5 -0.25L595.5 -0.25L8.874E-06 -0.25z" /></clipPath><clipPath id="14"><path id="" clip-rule="evenodd" transform="matrix(1 0 0 1 0 0)" d="M8.874E-06 842L595.5 842L595.5 842L595.5 -0.25L595.5 -0.25L8.874E-06 -0.25z" /></clipPath><clipPath id="15"><path id="" clip-rule="evenodd" transform="matrix(1 0 0 1 0 0)" d="M8.874E-06 842L595.5 842L595.5 842L595.5 -0.25L595.5 -0.25L8.874E-06 -0.25z" /></clipPath><clipPath id="16"><path id="" clip-rule="evenodd" transform="matrix(1 0 0 1 0 0)" d="M8.874E-06 842L595.5 842L595.5 842L595.5 -0.25L595.5 -0.25L8.874E-06 -0.25z" /></clipPath><clipPath id="17"><path id="" clip-rule="evenodd" transform="matrix(1 0 0 1 0 0)" d="M8.874E-06 842L595.5 842L595.5 842L595.5 -0.25L595.5 -0.25L8.874E-06 -0.25z" /></clipPath><clipPath id="18"><path id="" clip-rule="evenodd" transform="matrix(1 0 0 1 0 0)" d="M8.874E-06 842L595.5 842L595.5 842L595.5 -0.25L595.5 -0.25L8.874E-06 -0.25z" /></clipPath><clipPath id="19"><path id="" clip-rule="evenodd" transform="matrix(1 0 0 1 0 0)" d="M8.874E-06 842L595.5 842L595.5 842L595.5 -0.25L595.5 -0.25L8.874E-06 -0.25z" /></clipPath><clipPath id="20"><path id="" clip-rule="evenodd" transform="matrix(1 0 0 1 0 0)" d="M8.874E-06 842L595.5 842L595.5 842L595.5 -0.25L595.5 -0.25L8.874E-06 -0.25z" /></clipPath><clipPath id="21"><path id="" clip-rule="evenodd" transform="matrix(1 0 0 1 0 0)" d="M8.874E-06 842L595.5 842L595.5 842L595.5 -0.25L595.5 -0.25L8.874E-06 -0.25z" /></clipPath><clipPath id="22"><path id="" clip-rule="evenodd" transform="matrix(1 0 0 1 0 0)" d="M8.874E-06 842L595.5 842L595.5 842L595.5 -0.25L595.5 -0.25L8.874E-06 -0.25z" /></clipPath><clipPath id="23"><path id="" clip-rule="evenodd" transform="matrix(1 0 0 1 0 0)" d="M8.874E-06 842L595.5 842L595.5 842L595.5 -0.25L595.5 -0.25L8.874E-06 -0.25z" /></clipPath><clipPath id="24"><path id="" clip-rule="evenodd" transform="matrix(1 0 0 1 0 0)" d="M8.874E-06 842L595.5 842L595.5 842L595.5 -0.25L595.5 -0.25L8.874E-06 -0.25z" /></clipPath><clipPath id="25"><path id="" clip-rule="evenodd" transform="matrix(1 0 0 1 0 0)" d="M8.874E-06 842L595.5 842L595.5 842L595.5 -0.25L595.5 -0.25L8.874E-06 -0.25z" /></clipPath><clipPath id="26"><path id="" clip-rule="evenodd" transform="matrix(1 0 0 1 0 0)" d="M8.874E-06 842L595.5 842L595.5 842L595.5 -0.25L595.5 -0.25L8.874E-06 -0.25z" /></clipPath><clipPath id="27"><path id="" clip-rule="evenodd" transform="matrix(1 0 0 1 0 0)" d="M8.874E-06 842L595.5 842L595.5 842L595.5 -0.25L595.5 -0.25L8.874E-06 -0.25z" /></clipPath><clipPath id="28"><path id="" clip-rule="evenodd" transform="matrix(1 0 0 1 0 0)" d="M8.874E-06 842L595.5 842L595.5 842L595.5 -0.25L595.5 -0.25L8.874E-06 -0.25z" /></clipPath><clipPath id="29"><path id="" clip-rule="evenodd" transform="matrix(1 0 0 1 0 0)" d="M8.874E-06 842L595.5 842L595.5 842L595.5 -0.25L595.5 -0.25L8.874E-06 -0.25z" /></clipPath><clipPath id="30"><path id="" clip-rule="evenodd" transform="matrix(1 0 0 1 0 0)" d="M8.874E-06 842L595.5 842L595.5 842L595.5 -0.25L595.5 -0.25L8.874E-06 -0.25z" /></clipPath><clipPath id="31"><path id="" clip-rule="evenodd" transform="matrix(1 0 0 1 0 0)" d="M8.874E-06 842L595.5 842L595.5 842L595.5 -0.25L595.5 -0.25L8.874E-06 -0.25z" /></clipPath><clipPath id="32"><path id="" clip-rule="evenodd" transform="matrix(1 0 0 1 0 0)" d="M8.874E-06 842L595.5 842L595.5 842L595.5 -0.25L595.5 -0.25L8.874E-06 -0.25z" /></clipPath><clipPath id="33"><path id="" clip-rule="evenodd" transform="matrix(1 0 0 1 0 0)" d="M8.874E-06 842L595.5 842L595.5 842L595.5 -0.25L595.5 -0.25L8.874E-06 -0.25z" /></clipPath><clipPath id="34"><path id="" clip-rule="evenodd" transform="matrix(1 0 0 1 0 0)" d="M8.874E-06 842L595.5 842L595.5 842L595.5 -0.25L595.5 -0.25L8.874E-06 -0.25z" /></clipPath><clipPath id="35"><path id="" clip-rule="evenodd" transform="matrix(1 0 0 1 0 0)" d="M8.874E-06 842L595.5 842L595.5 842L595.5 -0.25L595.5 -0.25L8.874E-06 -0.25z" /></clipPath><clipPath id="36"><path id="" clip-rule="evenodd" transform="matrix(1 0 0 1 0 0)" d="M8.874E-06 842L595.5 842L595.5 842L595.5 -0.25L595.5 -0.25L8.874E-06 -0.25z" /></clipPath><clipPath id="37"><path id="" clip-rule="evenodd" transform="matrix(1 0 0 1 0 0)" d="M8.874E-06 842L595.5 842L595.5 842L595.5 -0.25L595.5 -0.25L8.874E-06 -0.25z" /></clipPath><clipPath id="38"><path id="" clip-rule="evenodd" transform="matrix(1 0 0 1 0 0)" d="M8.874E-06 842L595.5 842L595.5 842L595.5 -0.25L595.5 -0.25L8.874E-06 -0.25z" /></clipPath><clipPath id="39"><path id="" clip-rule="evenodd" transform="matrix(1 0 0 1 0 0)" d="M8.874E-06 842L595.5 842L595.5 842L595.5 -0.25L595.5 -0.25L8.874E-06 -0.25z" /></clipPath><clipPath id="40"><path id="" clip-rule="evenodd" transform="matrix(1 0 0 1 0 0)" d="M8.874E-06 842L595.5 842L595.5 842L595.5 -0.25L595.5 -0.25L8.874E-06 -0.25z" /></clipPath><clipPath id="41"><path id="" clip-rule="evenodd" transform="matrix(1 0 0 1 0 0)" d="M8.874E-06 842L595.5 842L595.5 842L595.5 -0.25L595.5 -0.25L8.874E-06 -0.25z" /></clipPath><clipPath id="42"><path id="" clip-rule="evenodd" transform="matrix(1 0 0 1 0 0)" d="M8.874E-06 842L595.5 842L595.5 842L595.5 -0.25L595.5 -0.25L8.874E-06 -0.25z" /></clipPath><clipPath id="43"><path id="" clip-rule="evenodd" transform="matrix(1 0 0 1 0 0)" d="M8.874E-06 842L595.5 842L595.5 842L595.5 -0.25L595.5 -0.25L8.874E-06 -0.25z" /></clipPath><clipPath id="44"><path id="" clip-rule="evenodd" transform="matrix(1 0 0 1 0 0)" d="M8.874E-06 842L595.5 842L595.5 842L595.5 -0.25L595.5 -0.25L8.874E-06 -0.25z" /></clipPath><clipPath id="45"><path id="" clip-rule="evenodd" transform="matrix(1 0 0 1 0 0)" d="M8.874E-06 842L595.5 842L595.5 842L595.5 -0.25L595.5 -0.25L8.874E-06 -0.25z" /></clipPath><clipPath id="46"><path id="" clip-rule="evenodd" transform="matrix(1 0 0 1 0 0)" d="M8.874E-06 842L595.5 842L595.5 842L595.5 -0.25L595.5 -0.25L8.874E-06 -0.25z" /></clipPath><clipPath id="47"><path id="" clip-rule="evenodd" transform="matrix(1 0 0 1 0 0)" d="M8.874E-06 842L595.5 842L595.5 842L595.5 -0.25L595.5 -0.25L8.874E-06 -0.25z" /></clipPath><clipPath id="48"><path id="" clip-rule="evenodd" transform="matrix(1 0 0 1 0 0)" d="M8.874E-06 842L595.5 842L595.5 842L595.5 -0.25L595.5 -0.25L8.874E-06 -0.25z" /></clipPath><clipPath id="49"><path id="" clip-rule="evenodd" transform="matrix(1 0 0 1 0 0)" d="M8.874E-06 842L595.5 842L595.5 842L595.5 -0.25L595.5 -0.25L8.874E-06 -0.25z" /></clipPath><clipPath id="50"><path id="" clip-rule="evenodd" transform="matrix(1 0 0 1 0 0)" d="M8.874E-06 842L595.5 842L595.5 842L595.5 -0.25L595.5 -0.25L8.874E-06 -0.25z" /></clipPath><clipPath id="51"><path id="" clip-rule="evenodd" transform="matrix(1 0 0 1 0 0)" d="M8.874E-06 842L595.5 842L595.5 842L595.5 -0.25L595.5 -0.25L8.874E-06 -0.25z" /></clipPath><clipPath id="52"><path id="" clip-rule="evenodd" transform="matrix(1 0 0 1 0 0)" d="M8.874E-06 842L595.5 842L595.5 842L595.5 -0.25L595.5 -0.25L8.874E-06 -0.25z" /></clipPath><clipPath id="53"><path id="" clip-rule="evenodd" transform="matrix(1 0 0 1 0 0)" d="M8.874E-06 842L595.5 842L595.5 842L595.5 -0.25L595.5 -0.25L8.874E-06 -0.25z" /></clipPath><clipPath id="54"><path id="" clip-rule="evenodd" transform="matrix(1 0 0 1 0 0)" d="M8.874E-06 842L595.5 842L595.5 842L595.5 -0.25L595.5 -0.25L8.874E-06 -0.25z" /></clipPath><clipPath id="55"><path id="" clip-rule="evenodd" transform="matrix(1 0 0 1 0 0)" d="M8.874E-06 842L595.5 842L595.5 842L595.5 -0.25L595.5 -0.25L8.874E-06 -0.25z" /></clipPath><clipPath id="56"><path id="" clip-rule="evenodd" transform="matrix(1 0 0 1 0 0)" d="M8.874E-06 842L595.5 842L595.5 842L595.5 -0.25L595.5 -0.25L8.874E-06 -0.25z" /></clipPath><clipPath id="57"><path id="" clip-rule="evenodd" transform="matrix(1 0 0 1 0 0)" d="M8.874E-06 842L595.5 842L595.5 842L595.5 -0.25L595.5 -0.25L8.874E-06 -0.25z" /></clipPath><clipPath id="58"><path id="" clip-rule="evenodd" transform="matrix(1 0 0 1 0 0)" d="M8.874E-06 842L595.5 842L595.5 842L595.5 -0.25L595.5 -0.25L8.874E-06 -0.25z" /></clipPath><clipPath id="59"><path id="" clip-rule="evenodd" transform="matrix(1 0 0 1 0 0)" d="M8.874E-06 842L595.5 842L595.5 842L595.5 -0.25L595.5 -0.25L8.874E-06 -0.25z" /></clipPath><clipPath id="60"><path id="" clip-rule="evenodd" transform="matrix(1 0 0 1 0 0)" d="M8.874E-06 842L595.5 842L595.5 842L595.5 -0.25L595.5 -0.25L8.874E-06 -0.25z" /></clipPath><clipPath id="61"><path id="" clip-rule="evenodd" transform="matrix(1 0 0 1 0 0)" d="M8.874E-06 842L595.5 842L595.5 842L595.5 -0.25L595.5 -0.25L8.874E-06 -0.25z" /></clipPath><clipPath id="62"><path id="" clip-rule="evenodd" transform="matrix(1 0 0 1 0 0)" d="M8.874E-06 842L595.5 842L595.5 842L595.5 -0.25L595.5 -0.25L8.874E-06 -0.25z" /></clipPath><clipPath id="63"><path id="" clip-rule="evenodd" transform="matrix(1 0 0 1 0 0)" d="M8.874E-06 842L595.5 842L595.5 842L595.5 -0.25L595.5 -0.25L8.874E-06 -0.25z" /></clipPath><clipPath id="64"><path id="" clip-rule="evenodd" transform="matrix(1 0 0 1 0 0)" d="M8.874E-06 842L595.5 842L595.5 842L595.5 -0.25L595.5 -0.25L8.874E-06 -0.25z" /></clipPath><clipPath id="65"><path id="" clip-rule="evenodd" transform="matrix(1 0 0 1 0 0)" d="M8.874E-06 842L595.5 842L595.5 842L595.5 -0.25L595.5 -0.25L8.874E-06 -0.25z" /></clipPath><clipPath id="66"><path id="" clip-rule="evenodd" transform="matrix(1 0 0 1 0 0)" d="M8.874E-06 842L595.5 842L595.5 842L595.5 -0.25L595.5 -0.25L8.874E-06 -0.25z" /></clipPath><clipPath id="67"><path id="" clip-rule="evenodd" transform="matrix(1 0 0 1 0 0)" d="M8.874E-06 842L595.5 842L595.5 842L595.5 -0.25L595.5 -0.25L8.874E-06 -0.25z" /></clipPath><clipPath id="68"><path id="" clip-rule="evenodd" transform="matrix(1 0 0 1 0 0)" d="M8.874E-06 842L595.5 842L595.5 842L595.5 -0.25L595.5 -0.25L8.874E-06 -0.25z" /></clipPath><clipPath id="69"><path id="" clip-rule="evenodd" transform="matrix(1 0 0 1 0 0)" d="M8.874E-06 842L595.5 842L595.5 842L595.5 -0.25L595.5 -0.25L8.874E-06 -0.25z" /></clipPath><clipPath id="70"><path id="" clip-rule="evenodd" transform="matrix(1 0 0 1 0 0)" d="M8.874E-06 842L595.5 842L595.5 842L595.5 -0.25L595.5 -0.25L8.874E-06 -0.25z" /></clipPath><clipPath id="71"><path id="" clip-rule="evenodd" transform="matrix(1 0 0 1 0 0)" d="M8.874E-06 842L595.5 842L595.5 842L595.5 -0.25L595.5 -0.25L8.874E-06 -0.25z" /></clipPath><clipPath id="72"><path id="" clip-rule="evenodd" transform="matrix(1 0 0 1 0 0)" d="M8.874E-06 842L595.5 842L595.5 842L595.5 -0.25L595.5 -0.25L8.874E-06 -0.25z" /></clipPath><clipPath id="73"><path id="" clip-rule="evenodd" transform="matrix(1 0 0 1 0 0)" d="M8.874E-06 842L595.5 842L595.5 842L595.5 -0.25L595.5 -0.25L8.874E-06 -0.25z" /></clipPath><clipPath id="74"><path id="" clip-rule="evenodd" transform="matrix(1 0 0 1 0 0)" d="M8.874E-06 842L595.5 842L595.5 842L595.5 -0.25L595.5 -0.25L8.874E-06 -0.25z" /></clipPath><clipPath id="75"><path id="" clip-rule="evenodd" transform="matrix(1 0 0 1 0 0)" d="M8.874E-06 842L595.5 842L595.5 842L595.5 -0.25L595.5 -0.25L8.874E-06 -0.25z" /></clipPath><clipPath id="76"><path id="" clip-rule="evenodd" transform="matrix(1 0 0 1 0 0)" d="M8.874E-06 842L595.5 842L595.5 842L595.5 -0.25L595.5 -0.25L8.874E-06 -0.25z" /></clipPath><clipPath id="77"><path id="" clip-rule="evenodd" transform="matrix(1 0 0 1 0 0)" d="M8.874E-06 842L595.5 842L595.5 842L595.5 -0.25L595.5 -0.25L8.874E-06 -0.25z" /></clipPath><clipPath id="78"><path id="" clip-rule="evenodd" transform="matrix(1 0 0 1 0 0)" d="M8.874E-06 842L595.5 842L595.5 842L595.5 -0.25L595.5 -0.25L8.874E-06 -0.25z" /></clipPath><clipPath id="79"><path id="" clip-rule="evenodd" transform="matrix(1 0 0 1 0 0)" d="M8.874E-06 842L595.5 842L595.5 842L595.5 -0.25L595.5 -0.25L8.874E-06 -0.25z" /></clipPath><clipPath id="80"><path id="" clip-rule="evenodd" transform="matrix(1 0 0 1 0 0)" d="M8.874E-06 842L595.5 842L595.5 842L595.5 -0.25L595.5 -0.25L8.874E-06 -0.25z" /></clipPath><clipPath id="81"><path id="" clip-rule="evenodd" transform="matrix(1 0 0 1 0 0)" d="M8.874E-06 842L595.5 842L595.5 842L595.5 -0.25L595.5 -0.25L8.874E-06 -0.25z" /></clipPath><clipPath id="82"><path id="" clip-rule="evenodd" transform="matrix(1 0 0 1 0 0)" d="M8.874E-06 842L595.5 842L595.5 842L595.5 -0.25L595.5 -0.25L8.874E-06 -0.25z" /></clipPath><clipPath id="83"><path id="" clip-rule="evenodd" transform="matrix(1 0 0 1 0 0)" d="M8.874E-06 842L595.5 842L595.5 842L595.5 -0.25L595.5 -0.25L8.874E-06 -0.25z" /></clipPath><clipPath id="84"><path id="" clip-rule="evenodd" transform="matrix(1 0 0 1 0 0)" d="M8.874E-06 842L595.5 842L595.5 842L595.5 -0.25L595.5 -0.25L8.874E-06 -0.25z" /></clipPath><clipPath id="85"><path id="" clip-rule="evenodd" transform="matrix(1 0 0 1 0 0)" d="M8.874E-06 842L595.5 842L595.5 842L595.5 -0.25L595.5 -0.25L8.874E-06 -0.25z" /></clipPath><clipPath id="86"><path id="" clip-rule="evenodd" transform="matrix(1 0 0 1 0 0)" d="M8.874E-06 842L595.5 842L595.5 842L595.5 -0.25L595.5 -0.25L8.874E-06 -0.25z" /></clipPath><clipPath id="87"><path id="" clip-rule="evenodd" transform="matrix(1 0 0 1 0 0)" d="M8.874E-06 842L595.5 842L595.5 842L595.5 -0.25L595.5 -0.25L8.874E-06 -0.25z" /></clipPath><clipPath id="88"><path id="" clip-rule="evenodd" transform="matrix(1 0 0 1 0 0)" d="M8.874E-06 842L595.5 842L595.5 842L595.5 -0.25L595.5 -0.25L8.874E-06 -0.25z" /></clipPath><clipPath id="89"><path id="" clip-rule="evenodd" transform="matrix(1 0 0 1 0 0)" d="M8.874E-06 842L595.5 842L595.5 842L595.5 -0.25L595.5 -0.25L8.874E-06 -0.25z" /></clipPath><clipPath id="90"><path id="" clip-rule="evenodd" transform="matrix(1 0 0 1 0 0)" d="M8.874E-06 842L595.5 842L595.5 842L595.5 -0.25L595.5 -0.25L8.874E-06 -0.25z" /></clipPath><clipPath id="91"><path id="" clip-rule="evenodd" transform="matrix(1 0 0 1 0 0)" d="M8.874E-06 842L595.5 842L595.5 842L595.5 -0.25L595.5 -0.25L8.874E-06 -0.25z" /></clipPath><clipPath id="92"><path id="" clip-rule="evenodd" transform="matrix(1 0 0 1 0 0)" d="M8.874E-06 842L595.5 842L595.5 842L595.5 -0.25L595.5 -0.25L8.874E-06 -0.25z" /></clipPath><clipPath id="93"><path id="" clip-rule="evenodd" transform="matrix(1 0 0 1 0 0)" d="M8.874E-06 842L595.5 842L595.5 842L595.5 -0.25L595.5 -0.25L8.874E-06 -0.25z" /></clipPath><clipPath id="94"><path id="" clip-rule="evenodd" transform="matrix(1 0 0 1 0 0)" d="M8.874E-06 842L595.5 842L595.5 842L595.5 -0.25L595.5 -0.25L8.874E-06 -0.25z" /></clipPath><clipPath id="95"><path id="" clip-rule="evenodd" transform="matrix(1 0 0 1 0 0)" d="M8.874E-06 842L595.5 842L595.5 842L595.5 -0.25L595.5 -0.25L8.874E-06 -0.25z" /></clipPath><clipPath id="96"><path id="" clip-rule="evenodd" transform="matrix(1 0 0 1 0 0)" d="M8.874E-06 842L595.5 842L595.5 842L595.5 -0.25L595.5 -0.25L8.874E-06 -0.25z" /></clipPath><clipPath id="97"><path id="" clip-rule="evenodd" transform="matrix(1 0 0 1 0 0)" d="M8.874E-06 842L595.5 842L595.5 842L595.5 -0.25L595.5 -0.25L8.874E-06 -0.25z" /></clipPath><clipPath id="98"><path id="" clip-rule="evenodd" transform="matrix(1 0 0 1 0 0)" d="M8.874E-06 842L595.5 842L595.5 842L595.5 -0.25L595.5 -0.25L8.874E-06 -0.25z" /></clipPath><clipPath id="99"><path id="" clip-rule="evenodd" transform="matrix(1 0 0 1 0 0)" d="M8.874E-06 842L595.5 842L595.5 842L595.5 -0.25L595.5 -0.25L8.874E-06 -0.25z" /></clipPath><clipPath id="100"><path id="" clip-rule="evenodd" transform="matrix(1 0 0 1 0 0)" d="M8.874E-06 842L595.5 842L595.5 842L595.5 -0.25L595.5 -0.25L8.874E-06 -0.25z" /></clipPath><clipPath id="101"><path id="" clip-rule="evenodd" transform="matrix(1 0 0 1 0 0)" d="M8.874E-06 842L595.5 842L595.5 842L595.5 -0.25L595.5 -0.25L8.874E-06 -0.25z" /></clipPath><clipPath id="102"><path id="" clip-rule="evenodd" transform="matrix(1 0 0 1 0 0)" d="M8.874E-06 842L595.5 842L595.5 842L595.5 -0.25L595.5 -0.25L8.874E-06 -0.25z" /></clipPath><clipPath id="103"><path id="" clip-rule="evenodd" transform="matrix(1 0 0 1 0 0)" d="M8.874E-06 842L595.5 842L595.5 842L595.5 -0.25L595.5 -0.25L8.874E-06 -0.25z" /></clipPath><clipPath id="104"><path id="" clip-rule="evenodd" transform="matrix(1 0 0 1 0 0)" d="M8.874E-06 842L595.5 842L595.5 842L595.5 -0.25L595.5 -0.25L8.874E-06 -0.25z" /></clipPath><clipPath id="105"><path id="" clip-rule="evenodd" transform="matrix(1 0 0 1 0 0)" d="M8.874E-06 842L595.5 842L595.5 842L595.5 -0.25L595.5 -0.25L8.874E-06 -0.25z" /></clipPath><clipPath id="106"><path id="" clip-rule="evenodd" transform="matrix(1 0 0 1 0 0)" d="M8.874E-06 842L595.5 842L595.5 842L595.5 -0.25L595.5 -0.25L8.874E-06 -0.25z" /></clipPath><clipPath id="107"><path id="" clip-rule="evenodd" transform="matrix(1 0 0 1 0 0)" d="M8.874E-06 842L595.5 842L595.5 842L595.5 -0.25L595.5 -0.25L8.874E-06 -0.25z" /></clipPath><clipPath id="108"><path id="" clip-rule="evenodd" transform="matrix(1 0 0 1 0 0)" d="M8.874E-06 842L595.5 842L595.5 842L595.5 -0.25L595.5 -0.25L8.874E-06 -0.25z" /></clipPath><clipPath id="109"><path id="" clip-rule="evenodd" transform="matrix(1 0 0 1 0 0)" d="M8.874E-06 842L595.5 842L595.5 842L595.5 -0.25L595.5 -0.25L8.874E-06 -0.25z" /></clipPath><clipPath id="110"><path id="" clip-rule="evenodd" transform="matrix(1 0 0 1 0 0)" d="M8.874E-06 842L595.5 842L595.5 842L595.5 -0.25L595.5 -0.25L8.874E-06 -0.25z" /></clipPath><clipPath id="111"><path id="" clip-rule="evenodd" transform="matrix(1 0 0 1 0 0)" d="M8.874E-06 842L595.5 842L595.5 842L595.5 -0.25L595.5 -0.25L8.874E-06 -0.25z" /></clipPath><clipPath id="112"><path id="" clip-rule="evenodd" transform="matrix(1 0 0 1 0 0)" d="M8.874E-06 842L595.5 842L595.5 842L595.5 -0.25L595.5 -0.25L8.874E-06 -0.25z" /></clipPath><clipPath id="113"><path id="" clip-rule="evenodd" transform="matrix(1 0 0 1 0 0)" d="M8.874E-06 842L595.5 842L595.5 842L595.5 -0.25L595.5 -0.25L8.874E-06 -0.25z" /></clipPath><clipPath id="114"><path id="" clip-rule="evenodd" transform="matrix(1 0 0 1 0 0)" d="M8.874E-06 842L595.5 842L595.5 842L595.5 -0.25L595.5 -0.25L8.874E-06 -0.25z" /></clipPath><clipPath id="115"><path id="" clip-rule="evenodd" transform="matrix(1 0 0 1 0 0)" d="M8.874E-06 842L595.5 842L595.5 842L595.5 -0.25L595.5 -0.25L8.874E-06 -0.25z" /></clipPath><clipPath id="116"><path id="" clip-rule="evenodd" transform="matrix(1 0 0 1 0 0)" d="M8.874E-06 842L595.5 842L595.5 842L595.5 -0.25L595.5 -0.25L8.874E-06 -0.25z" /></clipPath><clipPath id="117"><path id="" clip-rule="evenodd" transform="matrix(1 0 0 1 0 0)" d="M8.874E-06 842L595.5 842L595.5 842L595.5 -0.25L595.5 -0.25L8.874E-06 -0.25z" /></clipPath><clipPath id="118"><path id="" clip-rule="evenodd" transform="matrix(1 0 0 1 0 0)" d="M8.874E-06 842L595.5 842L595.5 842L595.5 -0.25L595.5 -0.25L8.874E-06 -0.25z" /></clipPath><clipPath id="119"><path id="" clip-rule="evenodd" transform="matrix(1 0 0 1 0 0)" d="M8.874E-06 842L595.5 842L595.5 842L595.5 -0.25L595.5 -0.25L8.874E-06 -0.25z" /></clipPath><clipPath id="120"><path id="" clip-rule="evenodd" transform="matrix(1 0 0 1 0 0)" d="M8.874E-06 842L595.5 842L595.5 842L595.5 -0.25L595.5 -0.25L8.874E-06 -0.25z" /></clipPath><clipPath id="121"><path id="" clip-rule="evenodd" transform="matrix(1 0 0 1 0 0)" d="M8.874E-06 842L595.5 842L595.5 842L595.5 -0.25L595.5 -0.25L8.874E-06 -0.25z" /></clipPath><clipPath id="122"><path id="" clip-rule="evenodd" transform="matrix(1 0 0 1 0 0)" d="M8.874E-06 842L595.5 842L595.5 842L595.5 -0.25L595.5 -0.25L8.874E-06 -0.25z" /></clipPath><clipPath id="123"><path id="" clip-rule="evenodd" transform="matrix(1 0 0 1 0 0)" d="M8.874E-06 842L595.5 842L595.5 842L595.5 -0.25L595.5 -0.25L8.874E-06 -0.25z" /></clipPath><clipPath id="124"><path id="" clip-rule="evenodd" transform="matrix(1 0 0 1 0 0)" d="M8.874E-06 842L595.5 842L595.5 842L595.5 -0.25L595.5 -0.25L8.874E-06 -0.25z" /></clipPath><clipPath id="125"><path id="" clip-rule="evenodd" transform="matrix(1 0 0 1 0 0)" d="M8.874E-06 842L595.5 842L595.5 842L595.5 -0.25L595.5 -0.25L8.874E-06 -0.25z" /></clipPath><clipPath id="126"><path id="" clip-rule="evenodd" transform="matrix(1 0 0 1 0 0)" d="M8.874E-06 842L595.5 842L595.5 842L595.5 -0.25L595.5 -0.25L8.874E-06 -0.25z" /></clipPath><clipPath id="127"><path id="" clip-rule="evenodd" transform="matrix(1 0 0 1 0 0)" d="M8.874E-06 842L595.5 842L595.5 842L595.5 -0.25L595.5 -0.25L8.874E-06 -0.25z" /></clipPath><clipPath id="128"><path id="" clip-rule="evenodd" transform="matrix(1 0 0 1 0 0)" d="M8.874E-06 842L595.5 842L595.5 842L595.5 -0.25L595.5 -0.25L8.874E-06 -0.25z" /></clipPath><clipPath id="129"><path id="" clip-rule="evenodd" transform="matrix(1 0 0 1 0 0)" d="M8.874E-06 842L595.5 842L595.5 842L595.5 -0.25L595.5 -0.25L8.874E-06 -0.25z" /></clipPath><clipPath id="130"><path id="" clip-rule="evenodd" transform="matrix(1 0 0 1 0 0)" d="M8.874E-06 842L595.5 842L595.5 842L595.5 -0.25L595.5 -0.25L8.874E-06 -0.25z" /></clipPath><clipPath id="131"><path id="" clip-rule="evenodd" transform="matrix(1 0 0 1 0 0)" d="M8.874E-06 842L595.5 842L595.5 842L595.5 -0.25L595.5 -0.25L8.874E-06 -0.25z" /></clipPath><clipPath id="132"><path id="" clip-rule="evenodd" transform="matrix(1 0 0 1 0 0)" d="M8.874E-06 842L595.5 842L595.5 842L595.5 -0.25L595.5 -0.25L8.874E-06 -0.25z" /></clipPath><clipPath id="133"><path id="" clip-rule="evenodd" transform="matrix(1 0 0 1 0 0)" d="M8.874E-06 842L595.5 842L595.5 842L595.5 -0.25L595.5 -0.25L8.874E-06 -0.25z" /></clipPath><clipPath id="134"><path id="" clip-rule="evenodd" transform="matrix(1 0 0 1 0 0)" d="M8.874E-06 842L595.5 842L595.5 842L595.5 -0.25L595.5 -0.25L8.874E-06 -0.25z" /></clipPath><clipPath id="135"><path id="" clip-rule="evenodd" transform="matrix(1 0 0 1 0 0)" d="M8.874E-06 842L595.5 842L595.5 842L595.5 -0.25L595.5 -0.25L8.874E-06 -0.25z" /></clipPath><clipPath id="136"><path id="" clip-rule="evenodd" transform="matrix(1 0 0 1 0 0)" d="M8.874E-06 842L595.5 842L595.5 842L595.5 -0.25L595.5 -0.25L8.874E-06 -0.25z" /></clipPath><clipPath id="137"><path id="" clip-rule="evenodd" transform="matrix(1 0 0 1 0 0)" d="M8.874E-06 842L595.5 842L595.5 842L595.5 -0.25L595.5 -0.25L8.874E-06 -0.25z" /></clipPath><clipPath id="138"><path id="" clip-rule="evenodd" transform="matrix(1 0 0 1 0 0)" d="M8.874E-06 842L595.5 842L595.5 842L595.5 -0.25L595.5 -0.25L8.874E-06 -0.25z" /></clipPath><clipPath id="139"><path id="" clip-rule="evenodd" transform="matrix(1 0 0 1 0 0)" d="M8.874E-06 842L595.5 842L595.5 842L595.5 -0.25L595.5 -0.25L8.874E-06 -0.25z" /></clipPath><clipPath id="140"><path id="" clip-rule="evenodd" transform="matrix(1 0 0 1 0 0)" d="M8.874E-06 842L595.5 842L595.5 842L595.5 -0.25L595.5 -0.25L8.874E-06 -0.25z" /></clipPath><clipPath id="141"><path id="" clip-rule="evenodd" transform="matrix(1 0 0 1 0 0)" d="M8.874E-06 842L595.5 842L595.5 842L595.5 -0.25L595.5 -0.25L8.874E-06 -0.25z" /></clipPath><clipPath id="142"><path id="" clip-rule="evenodd" transform="matrix(1 0 0 1 0 0)" d="M8.874E-06 842L595.5 842L595.5 842L595.5 -0.25L595.5 -0.25L8.874E-06 -0.25z" /></clipPath><clipPath id="143"><path id="" clip-rule="evenodd" transform="matrix(1 0 0 1 0 0)" d="M8.874E-06 842L595.5 842L595.5 842L595.5 -0.25L595.5 -0.25L8.874E-06 -0.25z" /></clipPath><clipPath id="144"><path id="" clip-rule="evenodd" transform="matrix(1 0 0 1 0 0)" d="M8.874E-06 842L595.5 842L595.5 842L595.5 -0.25L595.5 -0.25L8.874E-06 -0.25z" /></clipPath><clipPath id="145"><path id="" clip-rule="evenodd" transform="matrix(1 0 0 1 0 0)" d="M8.874E-06 842L595.5 842L595.5 842L595.5 -0.25L595.5 -0.25L8.874E-06 -0.25z" /></clipPath><clipPath id="146"><path id="" clip-rule="evenodd" transform="matrix(1 0 0 1 0 0)" d="M8.874E-06 842L595.5 842L595.5 842L595.5 -0.25L595.5 -0.25L8.874E-06 -0.25z" /></clipPath><clipPath id="147"><path id="" clip-rule="evenodd" transform="matrix(1 0 0 1 0 0)" d="M8.874E-06 842L595.5 842L595.5 842L595.5 -0.25L595.5 -0.25L8.874E-06 -0.25z" /></clipPath><clipPath id="148"><path id="" clip-rule="evenodd" transform="matrix(1 0 0 1 0 0)" d="M8.874E-06 842L595.5 842L595.5 842L595.5 -0.25L595.5 -0.25L8.874E-06 -0.25z" /></clipPath><clipPath id="149"><path id="" clip-rule="evenodd" transform="matrix(1 0 0 1 0 0)" d="M8.874E-06 842L595.5 842L595.5 842L595.5 -0.25L595.5 -0.25L8.874E-06 -0.25z" /></clipPath><clipPath id="150"><path id="" clip-rule="evenodd" transform="matrix(1 0 0 1 0 0)" d="M8.874E-06 842L595.5 842L595.5 842L595.5 -0.25L595.5 -0.25L8.874E-06 -0.25z" /></clipPath><clipPath id="151"><path id="" clip-rule="evenodd" transform="matrix(1 0 0 1 0 0)" d="M8.874E-06 842L595.5 842L595.5 842L595.5 -0.25L595.5 -0.25L8.874E-06 -0.25z" /></clipPath><clipPath id="152"><path id="" clip-rule="evenodd" transform="matrix(1 0 0 1 0 0)" d="M8.874E-06 842L595.5 842L595.5 842L595.5 -0.25L595.5 -0.25L8.874E-06 -0.25z" /></clipPath><clipPath id="153"><path id="" clip-rule="evenodd" transform="matrix(1 0 0 1 0 0)" d="M8.874E-06 842L595.5 842L595.5 842L595.5 -0.25L595.5 -0.25L8.874E-06 -0.25z" /></clipPath><clipPath id="154"><path id="" clip-rule="evenodd" transform="matrix(1 0 0 1 0 0)" d="M8.874E-06 842L595.5 842L595.5 842L595.5 -0.25L595.5 -0.25L8.874E-06 -0.25z" /></clipPath><clipPath id="155"><path id="" clip-rule="evenodd" transform="matrix(1 0 0 1 0 0)" d="M8.874E-06 842L595.5 842L595.5 842L595.5 -0.25L595.5 -0.25L8.874E-06 -0.25z" /></clipPath><clipPath id="156"><path id="" clip-rule="evenodd" transform="matrix(1 0 0 1 0 0)" d="M8.874E-06 842L595.5 842L595.5 842L595.5 -0.25L595.5 -0.25L8.874E-06 -0.25z" /></clipPath><clipPath id="157"><path id="" clip-rule="evenodd" transform="matrix(1 0 0 1 0 0)" d="M8.874E-06 842L595.5 842L595.5 842L595.5 -0.25L595.5 -0.25L8.874E-06 -0.25z" /></clipPath><clipPath id="158"><path id="" clip-rule="evenodd" transform="matrix(1 0 0 1 0 0)" d="M8.874E-06 842L595.5 842L595.5 842L595.5 -0.25L595.5 -0.25L8.874E-06 -0.25z" /></clipPath><clipPath id="159"><path id="" clip-rule="evenodd" transform="matrix(1 0 0 1 0 0)" d="M8.874E-06 842L595.5 842L595.5 842L595.5 -0.25L595.5 -0.25L8.874E-06 -0.25z" /></clipPath><clipPath id="160"><path id="" clip-rule="evenodd" transform="matrix(1 0 0 1 0 0)" d="M8.874E-06 842L595.5 842L595.5 842L595.5 -0.25L595.5 -0.25L8.874E-06 -0.25z" /></clipPath><clipPath id="161"><path id="" clip-rule="evenodd" transform="matrix(1 0 0 1 0 0)" d="M8.874E-06 842L595.5 842L595.5 842L595.5 -0.25L595.5 -0.25L8.874E-06 -0.25z" /></clipPath><clipPath id="162"><path id="" clip-rule="evenodd" transform="matrix(1 0 0 1 0 0)" d="M8.874E-06 842L595.5 842L595.5 842L595.5 -0.25L595.5 -0.25L8.874E-06 -0.25z" /></clipPath><clipPath id="163"><path id="" clip-rule="evenodd" transform="matrix(1 0 0 1 0 0)" d="M8.874E-06 842L595.5 842L595.5 842L595.5 -0.25L595.5 -0.25L8.874E-06 -0.25z" /></clipPath><clipPath id="164"><path id="" clip-rule="evenodd" transform="matrix(1 0 0 1 0 0)" d="M8.874E-06 842L595.5 842L595.5 842L595.5 -0.25L595.5 -0.25L8.874E-06 -0.25z" /></clipPath><clipPath id="165"><path id="" clip-rule="evenodd" transform="matrix(1 0 0 1 0 0)" d="M8.874E-06 842L595.5 842L595.5 842L595.5 -0.25L595.5 -0.25L8.874E-06 -0.25z" /></clipPath><clipPath id="166"><path id="" clip-rule="evenodd" transform="matrix(1 0 0 1 0 0)" d="M8.874E-06 842L595.5 842L595.5 842L595.5 -0.25L595.5 -0.25L8.874E-06 -0.25z" /></clipPath><clipPath id="167"><path id="" clip-rule="evenodd" transform="matrix(1 0 0 1 0 0)" d="M8.874E-06 842L595.5 842L595.5 842L595.5 -0.25L595.5 -0.25L8.874E-06 -0.25z" /></clipPath><clipPath id="168"><path id="" clip-rule="evenodd" transform="matrix(1 0 0 1 0 0)" d="M8.874E-06 842L595.5 842L595.5 842L595.5 -0.25L595.5 -0.25L8.874E-06 -0.25z" /></clipPath><clipPath id="169"><path id="" clip-rule="evenodd" transform="matrix(1 0 0 1 0 0)" d="M8.874E-06 842L595.5 842L595.5 842L595.5 -0.25L595.5 -0.25L8.874E-06 -0.25z" /></clipPath><clipPath id="170"><path id="" clip-rule="evenodd" transform="matrix(1 0 0 1 0 0)" d="M8.874E-06 842L595.5 842L595.5 842L595.5 -0.25L595.5 -0.25L8.874E-06 -0.25z" /></clipPath><clipPath id="171"><path id="" clip-rule="evenodd" transform="matrix(1 0 0 1 0 0)" d="M8.874E-06 842L595.5 842L595.5 842L595.5 -0.25L595.5 -0.25L8.874E-06 -0.25z" /></clipPath><clipPath id="172"><path id="" clip-rule="evenodd" transform="matrix(1 0 0 1 0 0)" d="M8.874E-06 842L595.5 842L595.5 842L595.5 -0.25L595.5 -0.25L8.874E-06 -0.25z" /></clipPath><clipPath id="173"><path id="" clip-rule="evenodd" transform="matrix(1 0 0 1 0 0)" d="M8.874E-06 842L595.5 842L595.5 842L595.5 -0.25L595.5 -0.25L8.874E-06 -0.25z" /></clipPath><clipPath id="174"><path id="" clip-rule="evenodd" transform="matrix(1 0 0 1 0 0)" d="M8.874E-06 842L595.5 842L595.5 842L595.5 -0.25L595.5 -0.25L8.874E-06 -0.25z" /></clipPath><clipPath id="175"><path id="" clip-rule="evenodd" transform="matrix(1 0 0 1 0 0)" d="M8.874E-06 842L595.5 842L595.5 842L595.5 -0.25L595.5 -0.25L8.874E-06 -0.25z" /></clipPath><clipPath id="176"><path id="" clip-rule="evenodd" transform="matrix(1 0 0 1 0 0)" d="M8.874E-06 842L595.5 842L595.5 842L595.5 -0.25L595.5 -0.25L8.874E-06 -0.25z" /></clipPath><clipPath id="177"><path id="" clip-rule="evenodd" transform="matrix(1 0 0 1 0 0)" d="M8.874E-06 842L595.5 842L595.5 842L595.5 -0.25L595.5 -0.25L8.874E-06 -0.25z" /></clipPath><clipPath id="178"><path id="" clip-rule="evenodd" transform="matrix(1 0 0 1 0 0)" d="M8.874E-06 842L595.5 842L595.5 842L595.5 -0.25L595.5 -0.25L8.874E-06 -0.25z" /></clipPath><clipPath id="179"><path id="" clip-rule="evenodd" transform="matrix(1 0 0 1 0 0)" d="M8.874E-06 842L595.5 842L595.5 842L595.5 -0.25L595.5 -0.25L8.874E-06 -0.25z" /></clipPath><clipPath id="180"><path id="" clip-rule="evenodd" transform="matrix(1 0 0 1 0 0)" d="M8.874E-06 842L595.5 842L595.5 842L595.5 -0.25L595.5 -0.25L8.874E-06 -0.25z" /></clipPath><clipPath id="181"><path id="" clip-rule="evenodd" transform="matrix(1 0 0 1 0 0)" d="M8.874E-06 842L595.5 842L595.5 842L595.5 -0.25L595.5 -0.25L8.874E-06 -0.25z" /></clipPath><clipPath id="182"><path id="" clip-rule="evenodd" transform="matrix(1 0 0 1 0 0)" d="M8.874E-06 842L595.5 842L595.5 842L595.5 -0.25L595.5 -0.25L8.874E-06 -0.25z" /></clipPath><clipPath id="183"><path id="" clip-rule="evenodd" transform="matrix(1 0 0 1 0 0)" d="M8.874E-06 842L595.5 842L595.5 842L595.5 -0.25L595.5 -0.25L8.874E-06 -0.25z" /></clipPath><clipPath id="184"><path id="" clip-rule="evenodd" transform="matrix(1 0 0 1 0 0)" d="M8.874E-06 842L595.5 842L595.5 842L595.5 -0.25L595.5 -0.25L8.874E-06 -0.25z" /></clipPath><clipPath id="185"><path id="" clip-rule="evenodd" transform="matrix(1 0 0 1 0 0)" d="M8.874E-06 842L595.5 842L595.5 842L595.5 -0.25L595.5 -0.25L8.874E-06 -0.25z" /></clipPath><clipPath id="186"><path id="" clip-rule="evenodd" transform="matrix(1 0 0 1 0 0)" d="M8.874E-06 842L595.5 842L595.5 842L595.5 -0.25L595.5 -0.25L8.874E-06 -0.25z" /></clipPath><clipPath id="187"><path id="" clip-rule="evenodd" transform="matrix(1 0 0 1 0 0)" d="M8.874E-06 842L595.5 842L595.5 842L595.5 -0.25L595.5 -0.25L8.874E-06 -0.25z" /></clipPath><clipPath id="188"><path id="" clip-rule="evenodd" transform="matrix(1 0 0 1 0 0)" d="M8.874E-06 842L595.5 842L595.5 842L595.5 -0.25L595.5 -0.25L8.874E-06 -0.25z" /></clipPath><clipPath id="189"><path id="" clip-rule="evenodd" transform="matrix(1 0 0 1 0 0)" d="M8.874E-06 842L595.5 842L595.5 842L595.5 -0.25L595.5 -0.25L8.874E-06 -0.25z" /></clipPath><clipPath id="190"><path id="" clip-rule="evenodd" transform="matrix(1 0 0 1 0 0)" d="M8.874E-06 842L595.5 842L595.5 842L595.5 -0.25L595.5 -0.25L8.874E-06 -0.25z" /></clipPath><clipPath id="191"><path id="" clip-rule="evenodd" transform="matrix(1 0 0 1 0 0)" d="M8.874E-06 842L595.5 842L595.5 842L595.5 -0.25L595.5 -0.25L8.874E-06 -0.25z" /></clipPath><clipPath id="192"><path id="" clip-rule="evenodd" transform="matrix(1 0 0 1 0 0)" d="M8.874E-06 842L595.5 842L595.5 842L595.5 -0.25L595.5 -0.25L8.874E-06 -0.25z" /></clipPath><clipPath id="193"><path id="" clip-rule="evenodd" transform="matrix(1 0 0 1 0 0)" d="M8.874E-06 842L595.5 842L595.5 842L595.5 -0.25L595.5 -0.25L8.874E-06 -0.25z" /></clipPath><clipPath id="194"><path id="" clip-rule="evenodd" transform="matrix(1 0 0 1 0 0)" d="M8.874E-06 842L595.5 842L595.5 842L595.5 -0.25L595.5 -0.25L8.874E-06 -0.25z" /></clipPath><clipPath id="195"><path id="" clip-rule="evenodd" transform="matrix(1 0 0 1 0 0)" d="M8.874E-06 842L595.5 842L595.5 842L595.5 -0.25L595.5 -0.25L8.874E-06 -0.25z" /></clipPath><clipPath id="196"><path id="" clip-rule="evenodd" transform="matrix(1 0 0 1 0 0)" d="M8.874E-06 842L595.5 842L595.5 842L595.5 -0.25L595.5 -0.25L8.874E-06 -0.25z" /></clipPath><clipPath id="197"><path id="" clip-rule="evenodd" transform="matrix(1 0 0 1 0 0)" d="M8.874E-06 842L595.5 842L595.5 842L595.5 -0.25L595.5 -0.25L8.874E-06 -0.25z" /></clipPath><clipPath id="198"><path id="" clip-rule="evenodd" transform="matrix(1 0 0 1 0 0)" d="M8.874E-06 842L595.5 842L595.5 842L595.5 -0.25L595.5 -0.25L8.874E-06 -0.25z" /></clipPath><clipPath id="199"><path id="" clip-rule="evenodd" transform="matrix(1 0 0 1 0 0)" d="M8.874E-06 842L595.5 842L595.5 842L595.5 -0.25L595.5 -0.25L8.874E-06 -0.25z" /></clipPath><clipPath id="200"><path id="" clip-rule="evenodd" transform="matrix(1 0 0 1 0 0)" d="M8.874E-06 842L595.5 842L595.5 842L595.5 -0.25L595.5 -0.25L8.874E-06 -0.25z" /></clipPath><clipPath id="201"><path id="" clip-rule="evenodd" transform="matrix(1 0 0 1 0 0)" d="M8.874E-06 842L595.5 842L595.5 842L595.5 -0.25L595.5 -0.25L8.874E-06 -0.25z" /></clipPath><clipPath id="202"><path id="" clip-rule="evenodd" transform="matrix(1 0 0 1 0 0)" d="M8.874E-06 842L595.5 842L595.5 842L595.5 -0.25L595.5 -0.25L8.874E-06 -0.25z" /></clipPath><clipPath id="203"><path id="" clip-rule="evenodd" transform="matrix(1 0 0 1 0 0)" d="M8.874E-06 842L595.5 842L595.5 842L595.5 -0.25L595.5 -0.25L8.874E-06 -0.25z" /></clipPath><clipPath id="204"><path id="" clip-rule="evenodd" transform="matrix(1 0 0 1 0 0)" d="M8.874E-06 842L595.5 842L595.5 842L595.5 -0.25L595.5 -0.25L8.874E-06 -0.25z" /></clipPath><clipPath id="205"><path id="" clip-rule="evenodd" transform="matrix(1 0 0 1 0 0)" d="M8.874E-06 842L595.5 842L595.5 842L595.5 -0.25L595.5 -0.25L8.874E-06 -0.25z" /></clipPath><clipPath id="206"><path id="" clip-rule="evenodd" transform="matrix(1 0 0 1 0 0)" d="M8.874E-06 842L595.5 842L595.5 842L595.5 -0.25L595.5 -0.25L8.874E-06 -0.25z" /></clipPath><clipPath id="207"><path id="" clip-rule="evenodd" transform="matrix(1 0 0 1 0 0)" d="M8.874E-06 842L595.5 842L595.5 842L595.5 -0.25L595.5 -0.25L8.874E-06 -0.25z" /></clipPath><clipPath id="208"><path id="" clip-rule="evenodd" transform="matrix(1 0 0 1 0 0)" d="M8.874E-06 842L595.5 842L595.5 842L595.5 -0.25L595.5 -0.25L8.874E-06 -0.25z" /></clipPath><clipPath id="209"><path id="" clip-rule="evenodd" transform="matrix(1 0 0 1 0 0)" d="M8.874E-06 842L595.5 842L595.5 842L595.5 -0.25L595.5 -0.25L8.874E-06 -0.25z" /></clipPath><clipPath id="210"><path id="" clip-rule="evenodd" transform="matrix(1 0 0 1 0 0)" d="M8.874E-06 842L595.5 842L595.5 842L595.5 -0.25L595.5 -0.25L8.874E-06 -0.25z" /></clipPath><clipPath id="211"><path id="" clip-rule="evenodd" transform="matrix(1 0 0 1 0 0)" d="M8.874E-06 842L595.5 842L595.5 842L595.5 -0.25L595.5 -0.25L8.874E-06 -0.25z" /></clipPath><clipPath id="212"><path id="" clip-rule="evenodd" transform="matrix(1 0 0 1 0 0)" d="M8.874E-06 842L595.5 842L595.5 842L595.5 -0.25L595.5 -0.25L8.874E-06 -0.25z" /></clipPath><clipPath id="213"><path id="" clip-rule="evenodd" transform="matrix(1 0 0 1 0 0)" d="M8.874E-06 842L595.5 842L595.5 842L595.5 -0.25L595.5 -0.25L8.874E-06 -0.25z" /></clipPath><clipPath id="214"><path id="" clip-rule="evenodd" transform="matrix(1 0 0 1 0 0)" d="M8.874E-06 842L595.5 842L595.5 842L595.5 -0.25L595.5 -0.25L8.874E-06 -0.25z" /></clipPath><clipPath id="215"><path id="" clip-rule="evenodd" transform="matrix(1 0 0 1 0 0)" d="M8.874E-06 842L595.5 842L595.5 842L595.5 -0.25L595.5 -0.25L8.874E-06 -0.25z" /></clipPath><clipPath id="216"><path id="" clip-rule="evenodd" transform="matrix(1 0 0 1 0 0)" d="M0 841.9999L595.5 841.9999L595.5 841.9999L595.5 -0.2501221L595.5 -0.2501221L0 -0.2501221z" /></clipPath><clipPath id="217"><path id="" clip-rule="evenodd" transform="matrix(1 0 0 1 0 0)" d="M0 841.9998L595.5 841.9998L595.5 841.9998L595.5 -0.2502441L595.5 -0.2502441L0 -0.2502441z" /></clipPath><clipPath id="218"><path id="" clip-rule="evenodd" transform="matrix(1 0 0 1 0 0)" d="M44.25 344L82.5 344L82.5 344L82.5 323L82.5 323L44.25 323z" /></clipPath><clipPath id="219"><path id="" clip-rule="evenodd" transform="matrix(1 0 0 1 0 0)" d="M44.25 344L82.5 344L82.5 344L82.5 323L82.5 323L44.25 323z" /></clipPath><clipPath id="220"><path id="" clip-rule="evenodd" transform="matrix(1 0 0 1 0 0)" d="M-1.431E-06 842L595.5 842L595.5 842L595.5 -0.25L595.5 -0.25L-1.431E-06 -0.25z" /></clipPath><clipPath id="221"><path id="" clip-rule="evenodd" transform="matrix(1 0 0 1 0 0)" d="M72.75 341.75L77.25 341.75L77.25 341.75L77.25 326L77.25 326L72.75 326z" /></clipPath><clipPath id="222"><path id="" clip-rule="evenodd" transform="matrix(1 0 0 1 0 0)" d="M72.75 341.75L77.25 341.75L77.25 341.75L77.25 326L77.25 326L72.75 326z" /></clipPath><clipPath id="223"><path id="" clip-rule="evenodd" transform="matrix(1 0 0 1 0 0)" d="M0 841.9998L595.5 841.9998L595.5 841.9998L595.5 -0.2502441L595.5 -0.2502441L0 -0.2502441z" /></clipPath><clipPath id="224"><path id="" clip-rule="evenodd" transform="matrix(1 0 0 1 0 0)" d="M-1.431E-06 842L595.5 842L595.5 842L595.5 -0.25L595.5 -0.25L-1.431E-06 -0.25z" /></clipPath><clipPath id="225"><path id="" clip-rule="evenodd" transform="matrix(1 0 0 1 0 0)" d="M72.75 344L111.75 344L111.75 344L111.75 323L111.75 323L72.75 323z" /></clipPath><clipPath id="226"><path id="" clip-rule="evenodd" transform="matrix(1 0 0 1 0 0)" d="M72.75 344L111.75 344L111.75 344L111.75 323L111.75 323L72.75 323z" /></clipPath><clipPath id="227"><path id="" clip-rule="evenodd" transform="matrix(1 0 0 1 0 0)" d="M-9.54E-07 842L595.5 842L595.5 842L595.5 -0.25L595.5 -0.25L-9.54E-07 -0.25z" /></clipPath><clipPath id="228"><path id="" clip-rule="evenodd" transform="matrix(1 0 0 1 0 0)" d="M101.25 341.75L105.75 341.75L105.75 341.75L105.75 326L105.75 326L101.25 326z" /></clipPath><clipPath id="229"><path id="" clip-rule="evenodd" transform="matrix(1 0 0 1 0 0)" d="M101.25 341.75L105.75 341.75L105.75 341.75L105.75 326L105.75 326L101.25 326z" /></clipPath><clipPath id="230"><path id="" clip-rule="evenodd" transform="matrix(1 0 0 1 0 0)" d="M0 841.9998L595.5 841.9998L595.5 841.9998L595.5 -0.2502441L595.5 -0.2502441L0 -0.2502441z" /></clipPath><clipPath id="231"><path id="" clip-rule="evenodd" transform="matrix(1 0 0 1 0 0)" d="M3.58E-07 841.9998L595.5 841.9998L595.5 841.9998L595.5 -0.2502441L595.5 -0.2502441L3.58E-07 -0.2502441z" /></clipPath><clipPath id="232"><path id="" clip-rule="evenodd" transform="matrix(1 0 0 1 0 0)" d="M0 841.9998L595.5 841.9998L595.5 841.9998L595.5 -0.2502441L595.5 -0.2502441L0 -0.2502441z" /></clipPath><clipPath id="233"><path id="" clip-rule="evenodd" transform="matrix(1 0 0 1 0 0)" d="M0 841.9998L595.5 841.9998L595.5 841.9998L595.5 -0.2501831L595.5 -0.2501831L0 -0.2501831z" /></clipPath><clipPath id="234"><path id="" clip-rule="evenodd" transform="matrix(1 0 0 1 0 0)" d="M45.75 186.5L84 186.5L84 186.5L84 165.5L84 165.5L45.75 165.5z" /></clipPath><clipPath id="235"><path id="" clip-rule="evenodd" transform="matrix(1 0 0 1 0 0)" d="M45.75 186.5L84 186.5L84 186.5L84 165.5L84 165.5L45.75 165.5z" /></clipPath><clipPath id="236"><path id="" clip-rule="evenodd" transform="matrix(1 0 0 1 0 0)" d="M-1.431E-06 842L595.5 842L595.5 842L595.5 -0.25L595.5 -0.25L-1.431E-06 -0.25z" /></clipPath><clipPath id="237"><path id="" clip-rule="evenodd" transform="matrix(1 0 0 1 0 0)" d="M74.25 185L78.75 185L78.75 185L78.75 169.25L78.75 169.25L74.25 169.25z" /></clipPath><clipPath id="238"><path id="" clip-rule="evenodd" transform="matrix(1 0 0 1 0 0)" d="M74.25 185L78.75 185L78.75 185L78.75 169.25L78.75 169.25L74.25 169.25z" /></clipPath><clipPath id="239"><path id="" clip-rule="evenodd" transform="matrix(1 0 0 1 0 0)" d="M0 841.9998L595.5 841.9998L595.5 841.9998L595.5 -0.2501831L595.5 -0.2501831L0 -0.2501831z" /></clipPath><clipPath id="240"><path id="" clip-rule="evenodd" transform="matrix(1 0 0 1 0 0)" d="M-1.431E-06 842L595.5 842L595.5 842L595.5 -0.25L595.5 -0.25L-1.431E-06 -0.25z" /></clipPath><clipPath id="241"><path id="" clip-rule="evenodd" transform="matrix(1 0 0 1 0 0)" d="M74.25 186.5L113.25 186.5L113.25 186.5L113.25 165.5L113.25 165.5L74.25 165.5z" /></clipPath><clipPath id="242"><path id="" clip-rule="evenodd" transform="matrix(1 0 0 1 0 0)" d="M74.25 186.5L113.25 186.5L113.25 186.5L113.25 165.5L113.25 165.5L74.25 165.5z" /></clipPath><clipPath id="243"><path id="" clip-rule="evenodd" transform="matrix(1 0 0 1 0 0)" d="M-9.54E-07 842L595.5 842L595.5 842L595.5 -0.25L595.5 -0.25L-9.54E-07 -0.25z" /></clipPath><clipPath id="244"><path id="" clip-rule="evenodd" transform="matrix(1 0 0 1 0 0)" d="M102.75 185L107.25 185L107.25 185L107.25 169.25L107.25 169.25L102.75 169.25z" /></clipPath><clipPath id="245"><path id="" clip-rule="evenodd" transform="matrix(1 0 0 1 0 0)" d="M102.75 185L107.25 185L107.25 185L107.25 169.25L107.25 169.25L102.75 169.25z" /></clipPath><clipPath id="246"><path id="" clip-rule="evenodd" transform="matrix(1 0 0 1 0 0)" d="M0 841.9998L595.5 841.9998L595.5 841.9998L595.5 -0.2501831L595.5 -0.2501831L0 -0.2501831z" /></clipPath><clipPath id="247"><path id="" clip-rule="evenodd" transform="matrix(1 0 0 1 0 0)" d="M-9.54E-07 842L595.5 842L595.5 842L595.5 -0.25L595.5 -0.25L-9.54E-07 -0.25z" /></clipPath><clipPath id="248"><path id="" clip-rule="evenodd" transform="matrix(1 0 0 1 0 0)" d="M102.75 179.75L109.5 179.75L109.5 179.75L109.5 158.75L109.5 158.75L102.75 158.75z" /></clipPath><clipPath id="249"><path id="" clip-rule="evenodd" transform="matrix(1 0 0 1 0 0)" d="M102.75 179.75L109.5 179.75L109.5 179.75L109.5 158.75L109.5 158.75L102.75 158.75z" /></clipPath><clipPath id="250"><path id="" clip-rule="evenodd" transform="matrix(1 0 0 1 0 0)" d="M-1.431E-06 842L595.5 842L595.5 842L595.5 -0.25L595.5 -0.25L-1.431E-06 -0.25z" /></clipPath><clipPath id="251"><path id="" clip-rule="evenodd" transform="matrix(1 0 0 1 0 0)" d="M107.25 178.25L111.75 178.25L111.75 178.25L111.75 162.5L111.75 162.5L107.25 162.5z" /></clipPath><clipPath id="252"><path id="" clip-rule="evenodd" transform="matrix(1 0 0 1 0 0)" d="M107.25 178.25L111.75 178.25L111.75 178.25L111.75 162.5L111.75 162.5L107.25 162.5z" /></clipPath><clipPath id="253"><path id="" clip-rule="evenodd" transform="matrix(1 0 0 1 0 0)" d="M-9.829999E-07 841.9998L595.5 841.9998L595.5 841.9998L595.5 -0.2502441L595.5 -0.2502441L-9.829999E-07 -0.2502441z" /></clipPath><clipPath id="254"><path id="" clip-rule="evenodd" transform="matrix(1 0 0 1 0 0)" d="M0 841.9999L595.5 841.9999L595.5 841.9999L595.5 -0.2501221L595.5 -0.2501221L0 -0.2501221z" /></clipPath><clipPath id="255"><path id="" clip-rule="evenodd" transform="matrix(1 0 0 1 0 0)" d="M45 488.75L83.25 488.75L83.25 488.75L83.25 467.75L83.25 467.75L45 467.75z" /></clipPath><clipPath id="256"><path id="" clip-rule="evenodd" transform="matrix(1 0 0 1 0 0)" d="M45 488.75L83.25 488.75L83.25 488.75L83.25 467.75L83.25 467.75L45 467.75z" /></clipPath><clipPath id="257"><path id="" clip-rule="evenodd" transform="matrix(1 0 0 1 0 0)" d="M-1.431E-06 841.9998L595.5 841.9998L595.5 841.9998L595.5 -0.2501831L595.5 -0.2501831L-1.431E-06 -0.2501831z" /></clipPath><clipPath id="258"><path id="" clip-rule="evenodd" transform="matrix(1 0 0 1 0 0)" d="M73.5 486.5L78 486.5L78 486.5L78 470.75L78 470.75L73.5 470.75z" /></clipPath><clipPath id="259"><path id="" clip-rule="evenodd" transform="matrix(1 0 0 1 0 0)" d="M73.5 486.5L78 486.5L78 486.5L78 470.75L78 470.75L73.5 470.75z" /></clipPath><clipPath id="260"><path id="" clip-rule="evenodd" transform="matrix(1 0 0 1 0 0)" d="M-1.431E-06 842L595.5 842L595.5 842L595.5 -0.25L595.5 -0.25L-1.431E-06 -0.25z" /></clipPath><clipPath id="261"><path id="" clip-rule="evenodd" transform="matrix(1 0 0 1 0 0)" d="M73.5 488.75L112.5 488.75L112.5 488.75L112.5 467.75L112.5 467.75L73.5 467.75z" /></clipPath><clipPath id="262"><path id="" clip-rule="evenodd" transform="matrix(1 0 0 1 0 0)" d="M73.5 488.75L112.5 488.75L112.5 488.75L112.5 467.75L112.5 467.75L73.5 467.75z" /></clipPath><clipPath id="263"><path id="" clip-rule="evenodd" transform="matrix(1 0 0 1 0 0)" d="M-9.54E-07 841.9998L595.5 841.9998L595.5 841.9998L595.5 -0.2501831L595.5 -0.2501831L-9.54E-07 -0.2501831z" /></clipPath><clipPath id="264"><path id="" clip-rule="evenodd" transform="matrix(1 0 0 1 0 0)" d="M102 486.5L106.5 486.5L106.5 486.5L106.5 470.75L106.5 470.75L102 470.75z" /></clipPath><clipPath id="265"><path id="" clip-rule="evenodd" transform="matrix(1 0 0 1 0 0)" d="M102 486.5L106.5 486.5L106.5 486.5L106.5 470.75L106.5 470.75L102 470.75z" /></clipPath><clipPath id="266"><path id="" clip-rule="evenodd" transform="matrix(1 0 0 1 0 0)" d="M-9.54E-07 841.9998L595.5 841.9998L595.5 841.9998L595.5 -0.2501831L595.5 -0.2501831L-9.54E-07 -0.2501831z" /></clipPath><clipPath id="267"><path id="" clip-rule="evenodd" transform="matrix(1 0 0 1 0 0)" d="M102 482L108.75 482L108.75 482L108.75 461L108.75 461L102 461z" /></clipPath><clipPath id="268"><path id="" clip-rule="evenodd" transform="matrix(1 0 0 1 0 0)" d="M102 482L108.75 482L108.75 482L108.75 461L108.75 461L102 461z" /></clipPath><clipPath id="269"><path id="" clip-rule="evenodd" transform="matrix(1 0 0 1 0 0)" d="M-9.54E-07 841.9998L595.5 841.9998L595.5 841.9998L595.5 -0.2501831L595.5 -0.2501831L-9.54E-07 -0.2501831z" /></clipPath><clipPath id="270"><path id="" clip-rule="evenodd" transform="matrix(1 0 0 1 0 0)" d="M106.5 479.75L111 479.75L111 479.75L111 464L111 464L106.5 464z" /></clipPath><clipPath id="271"><path id="" clip-rule="evenodd" transform="matrix(1 0 0 1 0 0)" d="M106.5 479.75L111 479.75L111 479.75L111 464L111 464L106.5 464z" /></clipPath><clipPath id="272"><path id="" clip-rule="evenodd" transform="matrix(1 0 0 1 0 0)" d="M-9.829999E-07 841.9998L595.5 841.9998L595.5 841.9998L595.5 -0.2502441L595.5 -0.2502441L-9.829999E-07 -0.2502441z" /></clipPath><clipPath id="273"><path id="" clip-rule="evenodd" transform="matrix(1 0 0 1 0 0)" d="M0 841.9999L595.5 841.9999L595.5 841.9999L595.5 -0.2501221L595.5 -0.2501221L0 -0.2501221z" /></clipPath><clipPath id="274"><path id="" clip-rule="evenodd" transform="matrix(1 0 0 1 0 0)" d="M42 604.25L80.25 604.25L80.25 604.25L80.25 583.25L80.25 583.25L42 583.25z" /></clipPath><clipPath id="275"><path id="" clip-rule="evenodd" transform="matrix(1 0 0 1 0 0)" d="M42 604.25L80.25 604.25L80.25 604.25L80.25 583.25L80.25 583.25L42 583.25z" /></clipPath><clipPath id="276"><path id="" clip-rule="evenodd" transform="matrix(1 0 0 1 0 0)" d="M-1.431E-06 841.9999L595.5 841.9999L595.5 841.9999L595.5 -0.2501221L595.5 -0.2501221L-1.431E-06 -0.2501221z" /></clipPath><clipPath id="277"><path id="" clip-rule="evenodd" transform="matrix(1 0 0 1 0 0)" d="M70.5 602L75 602L75 602L75 586.25L75 586.25L70.5 586.25z" /></clipPath><clipPath id="278"><path id="" clip-rule="evenodd" transform="matrix(1 0 0 1 0 0)" d="M70.5 602L75 602L75 602L75 586.25L75 586.25L70.5 586.25z" /></clipPath><clipPath id="279"><path id="" clip-rule="evenodd" transform="matrix(1 0 0 1 0 0)" d="M-1.431E-06 842L595.5 842L595.5 842L595.5 -0.25L595.5 -0.25L-1.431E-06 -0.25z" /></clipPath><clipPath id="280"><path id="" clip-rule="evenodd" transform="matrix(1 0 0 1 0 0)" d="M70.5 604.25L109.5 604.25L109.5 604.25L109.5 583.25L109.5 583.25L70.5 583.25z" /></clipPath><clipPath id="281"><path id="" clip-rule="evenodd" transform="matrix(1 0 0 1 0 0)" d="M70.5 604.25L109.5 604.25L109.5 604.25L109.5 583.25L109.5 583.25L70.5 583.25z" /></clipPath><clipPath id="282"><path id="" clip-rule="evenodd" transform="matrix(1 0 0 1 0 0)" d="M-1.431E-06 841.9999L595.5 841.9999L595.5 841.9999L595.5 -0.2501221L595.5 -0.2501221L-1.431E-06 -0.2501221z" /></clipPath><clipPath id="283"><path id="" clip-rule="evenodd" transform="matrix(1 0 0 1 0 0)" d="M99 602L103.5 602L103.5 602L103.5 586.25L103.5 586.25L99 586.25z" /></clipPath><clipPath id="284"><path id="" clip-rule="evenodd" transform="matrix(1 0 0 1 0 0)" d="M99 602L103.5 602L103.5 602L103.5 586.25L103.5 586.25L99 586.25z" /></clipPath><clipPath id="285"><path id="" clip-rule="evenodd" transform="matrix(1 0 0 1 0 0)" d="M-1.431E-06 841.9998L595.5 841.9998L595.5 841.9998L595.5 -0.2501831L595.5 -0.2501831L-1.431E-06 -0.2501831z" /></clipPath><clipPath id="286"><path id="" clip-rule="evenodd" transform="matrix(1 0 0 1 0 0)" d="M99 596.75L105.75 596.75L105.75 596.75L105.75 575.75L105.75 575.75L99 575.75z" /></clipPath><clipPath id="287"><path id="" clip-rule="evenodd" transform="matrix(1 0 0 1 0 0)" d="M99 596.75L105.75 596.75L105.75 596.75L105.75 575.75L105.75 575.75L99 575.75z" /></clipPath><clipPath id="288"><path id="" clip-rule="evenodd" transform="matrix(1 0 0 1 0 0)" d="M-9.54E-07 841.9998L595.5 841.9998L595.5 841.9998L595.5 -0.2501831L595.5 -0.2501831L-9.54E-07 -0.2501831z" /></clipPath><clipPath id="289"><path id="" clip-rule="evenodd" transform="matrix(1 0 0 1 0 0)" d="M103.5 594.5L108 594.5L108 594.5L108 578.75L108 578.75L103.5 578.75z" /></clipPath><clipPath id="290"><path id="" clip-rule="evenodd" transform="matrix(1 0 0 1 0 0)" d="M103.5 594.5L108 594.5L108 594.5L108 578.75L108 578.75L103.5 578.75z" /></clipPath><clipPath id="291"><path id="" clip-rule="evenodd" transform="matrix(1 0 0 1 0 0)" d="M6.21E-07 841.9998L595.5 841.9998L595.5 841.9998L595.5 -0.2502441L595.5 -0.2502441L6.21E-07 -0.2502441z" /></clipPath></defs><g transform="matrix(1.333333 0 0 1.333333 0 0)"><g clip-path="url(#1)"><g clip-path="url(#2)"></g><g clip-path="url(#3)"></g><g clip-path="url(#4)"></g><g clip-path="url(#5)"></g><g clip-path="url(#6)"></g><g clip-path="url(#7)"></g><g clip-path="url(#8)"></g><g clip-path="url(#9)"></g><g clip-path="url(#10)"></g><g clip-path="url(#11)"></g><g clip-path="url(#12)"></g><g clip-path="url(#13)"></g><g clip-path="url(#14)"></g><g clip-path="url(#15)"></g><g clip-path="url(#16)"></g><g clip-path="url(#17)"></g><g clip-path="url(#18)"></g><g clip-path="url(#19)"></g><g clip-path="url(#20)"></g><g clip-path="url(#21)"></g><g clip-path="url(#22)"></g><g clip-path="url(#23)"></g><g clip-path="url(#24)"></g><g clip-path="url(#25)"></g><g clip-path="url(#26)"></g><g clip-path="url(#27)"></g><g clip-path="url(#28)"></g><g clip-path="url(#29)"></g><g clip-path="url(#30)"></g><g clip-path="url(#31)"></g><g clip-path="url(#32)"></g><g clip-path="url(#33)"></g><g clip-path="url(#34)"></g><g clip-path="url(#35)"></g><g clip-path="url(#36)"></g><g clip-path="url(#37)"></g><g clip-path="url(#38)"></g><g clip-path="url(#39)"></g><g clip-path="url(#40)"></g><g clip-path="url(#41)"></g><g clip-path="url(#42)"></g><g clip-path="url(#43)"></g><g clip-path="url(#44)"></g><g clip-path="url(#45)"></g><g clip-path="url(#46)"></g><g clip-path="url(#47)"></g><g clip-path="url(#48)"></g><g clip-path="url(#49)"></g><g clip-path="url(#50)"></g><g clip-path="url(#51)"></g><g clip-path="url(#52)"></g><g clip-path="url(#53)"></g><g clip-path="url(#54)"></g><g clip-path="url(#55)"></g><g clip-path="url(#56)"></g><g clip-path="url(#57)"></g><g clip-path="url(#58)"></g><g clip-path="url(#59)"></g><g clip-path="url(#60)"></g><g clip-path="url(#61)"></g><g clip-path="url(#62)"></g><g clip-path="url(#63)"></g><g clip-path="url(#64)"></g><g clip-path="url(#65)"></g><g clip-path="url(#66)"></g><g clip-path="url(#67)"></g><g clip-path="url(#68)"></g><g clip-path="url(#69)"></g><g clip-path="url(#70)"></g><g clip-path="url(#71)"></g><g clip-path="url(#72)"></g><g clip-path="url(#73)"></g><g clip-path="url(#74)"></g><g clip-path="url(#75)"></g><g clip-path="url(#76)"></g><g clip-path="url(#77)"></g><g clip-path="url(#78)"></g><g clip-path="url(#79)"></g><g clip-path="url(#80)"></g><g clip-path="url(#81)"></g><g clip-path="url(#82)"></g><g clip-path="url(#83)"></g><g clip-path="url(#84)"></g><g clip-path="url(#85)"></g><g clip-path="url(#86)"></g><g clip-path="url(#87)"></g><g clip-path="url(#88)"></g><g clip-path="url(#89)"></g><g clip-path="url(#90)"></g><g clip-path="url(#91)"></g><g clip-path="url(#92)"></g><g clip-path="url(#93)"></g><g clip-path="url(#94)"></g><g clip-path="url(#95)"></g><g clip-path="url(#96)"></g><g clip-path="url(#97)"></g><g clip-path="url(#98)"></g><g clip-path="url(#99)"></g><g clip-path="url(#100)"></g><g clip-path="url(#101)"></g><g clip-path="url(#102)"></g><g clip-path="url(#103)"></g><g clip-path="url(#104)"></g><g clip-path="url(#105)"></g><g clip-path="url(#106)"></g><g clip-path="url(#107)"></g><g clip-path="url(#108)"></g><g clip-path="url(#109)"></g><g clip-path="url(#110)"></g><g clip-path="url(#111)"></g><g clip-path="url(#112)"></g><g clip-path="url(#113)"></g><g clip-path="url(#114)"></g><g clip-path="url(#115)"></g><g clip-path="url(#116)"></g><g clip-path="url(#117)"></g><g clip-path="url(#118)"></g><g clip-path="url(#119)"></g><g clip-path="url(#120)"></g><g clip-path="url(#121)"></g><g clip-path="url(#122)"></g><path id="413" transform="matrix(1 0 0 -1 0 842)" d="M212.53 504.45L317.65 504.45L317.65 504.45L317.65 505.2L317.65 505.2L212.53 505.2z" stroke="none" fill="#0563C1" fill-rule="evenodd" /><g clip-path="url(#123)"></g><g clip-path="url(#124)"></g><g clip-path="url(#125)"></g><g clip-path="url(#126)"></g><g clip-path="url(#127)"></g><g clip-path="url(#128)"></g><g clip-path="url(#129)"></g><g clip-path="url(#130)"></g><g clip-path="url(#131)"></g><g clip-path="url(#132)"></g><g clip-path="url(#133)"></g><g clip-path="url(#134)"></g><g clip-path="url(#135)"></g><g clip-path="url(#136)"></g><g clip-path="url(#137)"></g><g clip-path="url(#138)"></g><g clip-path="url(#139)"></g><g clip-path="url(#140)"></g><g clip-path="url(#141)"></g><g clip-path="url(#142)"></g><g clip-path="url(#143)"></g><g clip-path="url(#144)"></g><path id="513" transform="matrix(1 0 0 -1 0 842)" d="M205 451.15L356.7 451.15L356.7 451.15L356.7 451.9L356.7 451.9L205 451.9z" stroke="none" fill="#0563C1" fill-rule="evenodd" /><g clip-path="url(#145)"></g><g clip-path="url(#146)"></g><g clip-path="url(#147)"></g><g clip-path="url(#148)"></g><g clip-path="url(#149)"></g><g clip-path="url(#150)"></g><g clip-path="url(#151)"></g><g clip-path="url(#152)"></g><g clip-path="url(#153)"></g><g clip-path="url(#154)"></g><g clip-path="url(#155)"></g><g clip-path="url(#156)"></g><g clip-path="url(#157)"></g><g clip-path="url(#158)"></g><g clip-path="url(#159)"></g><g clip-path="url(#160)"></g><g clip-path="url(#161)"></g><g clip-path="url(#162)"></g><g clip-path="url(#163)"></g><g clip-path="url(#164)"></g><g clip-path="url(#165)"></g><g clip-path="url(#166)"></g><g clip-path="url(#167)"></g><g clip-path="url(#168)"></g><g clip-path="url(#169)"></g><g clip-path="url(#170)"></g><g clip-path="url(#171)"></g><g clip-path="url(#172)"></g><g clip-path="url(#173)"></g><g clip-path="url(#174)"></g><g clip-path="url(#175)"></g><g clip-path="url(#176)"></g><g clip-path="url(#177)"></g><g clip-path="url(#178)"></g><g clip-path="url(#179)"></g><g clip-path="url(#180)"></g><g clip-path="url(#181)"></g><g clip-path="url(#182)"></g><g clip-path="url(#183)"></g><g clip-path="url(#184)"></g><g clip-path="url(#185)"></g><g clip-path="url(#186)"></g><g clip-path="url(#187)"></g><g clip-path="url(#188)"></g><g clip-path="url(#189)"></g><g clip-path="url(#190)"></g><g clip-path="url(#191)"></g><g clip-path="url(#192)"></g><g clip-path="url(#193)"></g><g clip-path="url(#194)"></g><g clip-path="url(#195)"></g><g clip-path="url(#196)"></g><g clip-path="url(#197)"></g><g clip-path="url(#198)"></g><g clip-path="url(#199)"></g><g clip-path="url(#200)"></g><g clip-path="url(#201)"></g><g clip-path="url(#202)"></g><g clip-path="url(#203)"></g><g clip-path="url(#204)"></g><g clip-path="url(#205)"></g><g clip-path="url(#206)"></g><g clip-path="url(#207)"></g><g clip-path="url(#208)"></g><g clip-path="url(#209)"></g><g clip-path="url(#210)"></g><g clip-path="url(#211)"></g><g clip-path="url(#212)"></g><g clip-path="url(#213)"></g><g clip-path="url(#214)"></g><g clip-path="url(#215)"></g><path id="850" transform="matrix(1 0 0 -1 0 842)" d="M113.35 733.7L116.36 727.7L116.36 727.7L114.11 727.7L114.11 727.7L114.85 183.95L114.85 183.95L113.35 183.95L113.35 183.95L112.61 727.7L112.61 727.7L110.36 727.7L110.36 727.7L113.35 733.7z" stroke="none" fill="#0070C0" fill-rule="evenodd" /><path id="851" transform="matrix(1 0 0 -1 0 842)" d="M114.1 678.2C 116.59 678.2 118.6 676.19 118.6 673.7C 118.6 671.21 116.59 669.2 114.1 669.2C 111.61 669.2 109.6 671.21 109.6 673.7C 109.6 676.19 111.61 678.2 114.1 678.2z" stroke="none" fill="#0070C0" fill-rule="evenodd" /><path id="852" transform="matrix(1 0 0 -1 0 842)" d="M109.6 673.7C 109.6 676.19 111.61 678.2 114.1 678.2C 116.59 678.2 118.6 676.19 118.6 673.7C 118.6 671.21 116.59 669.2 114.1 669.2C 111.61 669.2 109.6 671.21 109.6 673.7z" stroke="#FFFFFF" stroke-width="1.5" fill="none" /><path id="853" transform="matrix(1 0 0 -1 0 842)" d="M113.35 522.2C 115.84 522.2 117.85 520.19 117.85 517.7C 117.85 515.21 115.84 513.2 113.35 513.2C 110.86 513.2 108.85 515.21 108.85 517.7C 108.85 520.19 110.86 522.2 113.35 522.2z" stroke="none" fill="#0070C0" fill-rule="evenodd" /><path id="854" transform="matrix(1 0 0 -1 0 842)" d="M108.85 517.7C 108.85 520.19 110.86 522.2 113.35 522.2C 115.84 522.2 117.85 520.19 117.85 517.7C 117.85 515.21 115.84 513.2 113.35 513.2C 110.86 513.2 108.85 515.21 108.85 517.7z" stroke="#FFFFFF" stroke-width="1.5" fill="none" /><path id="855" transform="matrix(1 0 0 -1 0 842)" d="M114.85 378.2C 117.34 378.2 119.35 376.19 119.35 373.7C 119.35 371.21 117.34 369.2 114.85 369.2C 112.36 369.2 110.35 371.21 110.35 373.7C 110.35 376.19 112.36 378.2 114.85 378.2z" stroke="none" fill="#0070C0" fill-rule="evenodd" /><path id="856" transform="matrix(1 0 0 -1 0 842)" d="M110.35 373.7C 110.35 376.19 112.36 378.2 114.85 378.2C 117.34 378.2 119.35 376.19 119.35 373.7C 119.35 371.21 117.34 369.2 114.85 369.2C 112.36 369.2 110.35 371.21 110.35 373.7z" stroke="#FFFFFF" stroke-width="1.5" fill="none" /><path id="857" transform="matrix(1 0 0 -1 0 842)" d="M114.1 261.2C 116.59 261.2 118.6 259.19 118.6 256.7C 118.6 254.21 116.59 252.2 114.1 252.2C 111.61 252.2 109.6 254.21 109.6 256.7C 109.6 259.19 111.61 261.2 114.1 261.2z" stroke="none" fill="#0070C0" fill-rule="evenodd" /><path id="858" transform="matrix(1 0 0 -1 0 842)" d="M109.6 256.7C 109.6 259.19 111.61 261.2 114.1 261.2C 116.59 261.2 118.6 259.19 118.6 256.7C 118.6 254.21 116.59 252.2 114.1 252.2C 111.61 252.2 109.6 254.21 109.6 256.7z" stroke="#FFFFFF" stroke-width="1.5" fill="none" /><path id="859" transform="matrix(1 0 0 -1 0 842)" d="M114.1 188.45C 116.59 188.45 118.6 186.44 118.6 183.95C 118.6 181.46 116.59 179.45 114.1 179.45C 111.61 179.45 109.6 181.46 109.6 183.95C 109.6 186.44 111.61 188.45 114.1 188.45z" stroke="none" fill="#0070C0" fill-rule="evenodd" /><g clip-path="url(#216)"><g transform="matrix(0.75 0 0 0.75 36.85 311.55)"><g transform="matrix(1 0 0 1 0 0)"><image x="0" y="0" xlink:href="img_01.png" width="100" height="41" /></g></g></g><g clip-path="url(#217)"><g transform="matrix(0.75 0 0 0.75 44.3 317.45)"><g transform="matrix(1 0 0 1 0 0)"><image x="0" y="0" xlink:href="img_02.png" width="51" height="27" /></g></g></g><g transform="matrix(0.75 0 0 0.75 44.25 323.75)"><g transform="matrix(1 0 0 1 0 0)"><image x="0" y="0" xlink:href="img_02.png" width="51" height="27" /></g></g><g clip-path="url(#218)"></g><g clip-path="url(#219)"></g><g clip-path="url(#220)"><g transform="matrix(0.75 0 0 0.75 72.75 326.75)"><g transform="matrix(1 0 0 1 0 0)"><image x="0" y="0" xlink:href="img_03.png" width="5" height="20" /></g></g></g><g clip-path="url(#221)"></g><g clip-path="url(#222)"></g><g clip-path="url(#223)"><g transform="matrix(0.75 0 0 0.75 72.8 317.45)"><g transform="matrix(1 0 0 1 0 0)"><image x="0" y="0" xlink:href="img_02.png" width="51" height="27" /></g></g></g><g clip-path="url(#224)"><g transform="matrix(0.75 0 0 0.75 72.75 323.75)"><g transform="matrix(1 0 0 1 0 0)"><image x="0" y="0" xlink:href="img_02.png" width="51" height="27" /></g></g></g><g clip-path="url(#225)"></g><g clip-path="url(#226)"></g><g clip-path="url(#227)"><g transform="matrix(0.75 0 0 0.75 101.25 326.75)"><g transform="matrix(1 0 0 1 0 0)"><image x="0" y="0" xlink:href="img_03.png" width="5" height="20" /></g></g></g><g clip-path="url(#228)"></g><g clip-path="url(#229)"></g><g clip-path="url(#230)"><g transform="matrix(0.75 0 0 0.75 101.3 317.45)"><g transform="matrix(1 0 0 1 0 0)"><image x="0" y="0" xlink:href="img_04.png" width="8" height="27" /></g></g></g><g clip-path="url(#231)"><g transform="matrix(0.5390625 0 0 0.5390625 20.35 315.3)"><g transform="matrix(1 0 0 1 0 0)"><image x="0" y="0" xlink:href="img_05.png" width="32" height="32" /></g></g></g><g clip-path="url(#232)"><g transform="matrix(0.75 0 0 0.75 38.35 154.8)"><g transform="matrix(1 0 0 1 0 0)"><image x="0" y="0" xlink:href="img_01.png" width="100" height="41" /></g></g></g><g clip-path="url(#233)"><g transform="matrix(0.75 0 0 0.75 45.8 160.7)"><g transform="matrix(1 0 0 1 0 0)"><image x="0" y="0" xlink:href="img_02.png" width="51" height="27" /></g></g></g><g transform="matrix(0.75 0 0 0.75 45.75 166.25)"><g transform="matrix(1 0 0 1 0 0)"><image x="0" y="0" xlink:href="img_02.png" width="51" height="27" /></g></g><g clip-path="url(#234)"></g><g clip-path="url(#235)"></g><g clip-path="url(#236)"><g transform="matrix(0.75 0 0 0.75 74.25 170)"><g transform="matrix(1 0 0 1 0 0)"><image x="0" y="0" xlink:href="img_03.png" width="5" height="20" /></g></g></g><g clip-path="url(#237)"></g><g clip-path="url(#238)"></g><g clip-path="url(#239)"><g transform="matrix(0.75 0 0 0.75 74.3 160.7)"><g transform="matrix(1 0 0 1 0 0)"><image x="0" y="0" xlink:href="img_02.png" width="51" height="27" /></g></g></g><g clip-path="url(#240)"><g transform="matrix(0.75 0 0 0.75 74.25 166.25)"><g transform="matrix(1 0 0 1 0 0)"><image x="0" y="0" xlink:href="img_02.png" width="51" height="27" /></g></g></g><g clip-path="url(#241)"></g><g clip-path="url(#242)"></g><g clip-path="url(#243)"><g transform="matrix(0.75 0 0 0.75 102.75 170)"><g transform="matrix(1 0 0 1 0 0)"><image x="0" y="0" xlink:href="img_03.png" width="5" height="20" /></g></g></g><g clip-path="url(#244)"></g><g clip-path="url(#245)"></g><g clip-path="url(#246)"><g transform="matrix(0.75 0 0 0.75 102.8 160.7)"><g transform="matrix(1 0 0 1 0 0)"><image x="0" y="0" xlink:href="img_04.png" width="8" height="27" /></g></g></g><g clip-path="url(#247)"><g transform="matrix(0.75 0 0 0.75 102.75 159.5)"><g transform="matrix(1 0 0 1 0 0)"><image x="0" y="0" xlink:href="img_04.png" width="8" height="27" /></g></g></g><g clip-path="url(#248)"></g><g clip-path="url(#249)"></g><g clip-path="url(#250)"><g transform="matrix(0.75 0 0 0.75 107.25 163.25)"><g transform="matrix(1 0 0 1 0 0)"><image x="0" y="0" xlink:href="img_03.png" width="5" height="20" /></g></g></g><g clip-path="url(#251)"></g><g clip-path="url(#252)"></g><g clip-path="url(#253)"><g transform="matrix(0.5390625 0 0 0.5390625 23.35 157.8)"><g transform="matrix(1 0 0 1 0 0)"><image x="0" y="0" xlink:href="img_06.png" width="32" height="32" /></g></g></g><g clip-path="url(#254)"><g transform="matrix(0.75 0 0 0.75 37.6 456.3)"><g transform="matrix(1 0 0 1 0 0)"><image x="0" y="0" xlink:href="img_01.png" width="100" height="41" /></g></g></g><g transform="matrix(0.75 0 0 0.75 45.05 462.2)"><g transform="matrix(1 0 0 1 0 0)"><image x="0" y="0" xlink:href="img_02.png" width="51" height="27" /></g></g><g transform="matrix(0.75 0 0 0.75 45 468.5)"><g transform="matrix(1 0 0 1 0 0)"><image x="0" y="0" xlink:href="img_02.png" width="51" height="27" /></g></g><g clip-path="url(#255)"></g><g clip-path="url(#256)"></g><g clip-path="url(#257)"><g transform="matrix(0.75 0 0 0.75 73.5 471.5)"><g transform="matrix(1 0 0 1 0 0)"><image x="0" y="0" xlink:href="img_03.png" width="5" height="20" /></g></g></g><g clip-path="url(#258)"></g><g clip-path="url(#259)"></g><g transform="matrix(0.75 0 0 0.75 73.55 462.2)"><g transform="matrix(1 0 0 1 0 0)"><image x="0" y="0" xlink:href="img_02.png" width="51" height="27" /></g></g><g clip-path="url(#260)"><g transform="matrix(0.75 0 0 0.75 73.5 468.5)"><g transform="matrix(1 0 0 1 0 0)"><image x="0" y="0" xlink:href="img_02.png" width="51" height="27" /></g></g></g><g clip-path="url(#261)"></g><g clip-path="url(#262)"></g><g clip-path="url(#263)"><g transform="matrix(0.75 0 0 0.75 102 471.5)"><g transform="matrix(1 0 0 1 0 0)"><image x="0" y="0" xlink:href="img_03.png" width="5" height="20" /></g></g></g><g clip-path="url(#264)"></g><g clip-path="url(#265)"></g><g transform="matrix(0.75 0 0 0.75 102.05 462.2)"><g transform="matrix(1 0 0 1 0 0)"><image x="0" y="0" xlink:href="img_04.png" width="8" height="27" /></g></g><g clip-path="url(#266)"><g transform="matrix(0.75 0 0 0.75 102 461.75)"><g transform="matrix(1 0 0 1 0 0)"><image x="0" y="0" xlink:href="img_04.png" width="8" height="27" /></g></g></g><g clip-path="url(#267)"></g><g clip-path="url(#268)"></g><g clip-path="url(#269)"><g transform="matrix(0.75 0 0 0.75 106.5 464.75)"><g transform="matrix(1 0 0 1 0 0)"><image x="0" y="0" xlink:href="img_03.png" width="5" height="20" /></g></g></g><g clip-path="url(#270)"></g><g clip-path="url(#271)"></g><g clip-path="url(#272)"><g transform="matrix(0.5390625 0 0 0.5390625 23.35 462.3)"><g transform="matrix(1 0 0 1 0 0)"><image x="0" y="0" xlink:href="img_07.png" width="32" height="32" /></g></g></g><g clip-path="url(#273)"><g transform="matrix(0.75 0 0 0.75 34.6 571.05)"><g transform="matrix(1 0 0 1 0 0)"><image x="0" y="0" xlink:href="img_01.png" width="100" height="41" /></g></g></g><g transform="matrix(0.75 0 0 0.7500001 42.05 576.95)"><g transform="matrix(1 0 0 1 0 0)"><image x="0" y="0" xlink:href="img_08.png" width="51" height="28" /></g></g><g transform="matrix(0.75 0 0 0.75 42 583.25)"><g transform="matrix(1 0 0 1 0 0)"><image x="0" y="0" xlink:href="img_02.png" width="51" height="27" /></g></g><g clip-path="url(#274)"></g><g clip-path="url(#275)"></g><g clip-path="url(#276)"><g transform="matrix(0.75 0 0 0.75 70.5 586.25)"><g transform="matrix(1 0 0 1 0 0)"><image x="0" y="0" xlink:href="img_03.png" width="5" height="20" /></g></g></g><g clip-path="url(#277)"></g><g clip-path="url(#278)"></g><g transform="matrix(0.75 0 0 0.7500001 70.55 576.95)"><g transform="matrix(1 0 0 1 0 0)"><image x="0" y="0" xlink:href="img_08.png" width="51" height="28" /></g></g><g clip-path="url(#279)"><g transform="matrix(0.75 0 0 0.75 70.5 583.25)"><g transform="matrix(1 0 0 1 0 0)"><image x="0" y="0" xlink:href="img_02.png" width="51" height="27" /></g></g></g><g clip-path="url(#280)"></g><g clip-path="url(#281)"></g><g clip-path="url(#282)"><g transform="matrix(0.75 0 0 0.75 99 586.25)"><g transform="matrix(1 0 0 1 0 0)"><image x="0" y="0" xlink:href="img_03.png" width="5" height="20" /></g></g></g><g clip-path="url(#283)"></g><g clip-path="url(#284)"></g><g transform="matrix(0.75 0 0 0.7500001 99.05 576.95)"><g transform="matrix(1 0 0 1 0 0)"><image x="0" y="0" xlink:href="img_09.png" width="8" height="28" /></g></g><g clip-path="url(#285)"><g transform="matrix(0.75 0 0 0.75 99 576.5)"><g transform="matrix(1 0 0 1 0 0)"><image x="0" y="0" xlink:href="img_04.png" width="8" height="27" /></g></g></g><g clip-path="url(#286)"></g><g clip-path="url(#287)"></g><g clip-path="url(#288)"><g transform="matrix(0.75 0 0 0.75 103.5 579.5)"><g transform="matrix(1 0 0 1 0 0)"><image x="0" y="0" xlink:href="img_03.png" width="5" height="20" /></g></g></g><g clip-path="url(#289)"></g><g clip-path="url(#290)"></g><g clip-path="url(#291)"><g transform="matrix(0.4421875 0 0 0.4421875 22.6 576.3)"><g transform="matrix(1 0 0 1 0 0)"><image x="0" y="0" xlink:href="img_10.png" width="32" height="32" /></g></g></g></g></g></svg>