<svg xmlns="http://www.w3.org/2000/svg" xmlns:xlink="http://www.w3.org/1999/xlink" id="body_1" preserveAspectRatio="xMinYMin meet" viewBox="0 0 793 1123"><defs><clipPath id="1"><path id="" clip-rule="evenodd" transform="matrix(1 0 0 1 0 0)" d="M0 842L0 -0.25L0 -0.25L595.5 -0.25L595.5 -0.25L595.5 842L595.5 842L0 842z" /></clipPath><clipPath id="2"><path id="" clip-rule="evenodd" transform="matrix(1 0 0 1 0 0)" d="M8.874E-06 842L595.5 842L595.5 842L595.5 -0.25L595.5 -0.25L8.874E-06 -0.25z" /></clipPath><clipPath id="3"><path id="" clip-rule="evenodd" transform="matrix(1 0 0 1 0 0)" d="M8.874E-06 842L595.5 842L595.5 842L595.5 -0.25L595.5 -0.25L8.874E-06 -0.25z" /></clipPath><clipPath id="4"><path id="" clip-rule="evenodd" transform="matrix(1 0 0 1 0 0)" d="M8.874E-06 842L595.5 842L595.5 842L595.5 -0.25L595.5 -0.25L8.874E-06 -0.25z" /></clipPath><clipPath id="5"><path id="" clip-rule="evenodd" transform="matrix(1 0 0 1 0 0)" d="M8.874E-06 842L595.5 842L595.5 842L595.5 -0.25L595.5 -0.25L8.874E-06 -0.25z" /></clipPath><clipPath id="6"><path id="" clip-rule="evenodd" transform="matrix(1 0 0 1 0 0)" d="M8.874E-06 842L595.5 842L595.5 842L595.5 -0.25L595.5 -0.25L8.874E-06 -0.25z" /></clipPath><clipPath id="7"><path id="" clip-rule="evenodd" transform="matrix(1 0 0 1 0 0)" d="M8.874E-06 842L595.5 842L595.5 842L595.5 -0.25L595.5 -0.25L8.874E-06 -0.25z" /></clipPath><clipPath id="8"><path id="" clip-rule="evenodd" transform="matrix(1 0 0 1 0 0)" d="M8.874E-06 842L595.5 842L595.5 842L595.5 -0.25L595.5 -0.25L8.874E-06 -0.25z" /></clipPath><clipPath id="9"><path id="" clip-rule="evenodd" transform="matrix(1 0 0 1 0 0)" d="M8.874E-06 842L595.5 842L595.5 842L595.5 -0.25L595.5 -0.25L8.874E-06 -0.25z" /></clipPath><clipPath id="10"><path id="" clip-rule="evenodd" transform="matrix(1 0 0 1 0 0)" d="M8.874E-06 842L595.5 842L595.5 842L595.5 -0.25L595.5 -0.25L8.874E-06 -0.25z" /></clipPath><clipPath id="11"><path id="" clip-rule="evenodd" transform="matrix(1 0 0 1 0 0)" d="M8.874E-06 842L595.5 842L595.5 842L595.5 -0.25L595.5 -0.25L8.874E-06 -0.25z" /></clipPath><clipPath id="12"><path id="" clip-rule="evenodd" transform="matrix(1 0 0 1 0 0)" d="M8.874E-06 842L595.5 842L595.5 842L595.5 -0.25L595.5 -0.25L8.874E-06 -0.25z" /></clipPath><clipPath id="13"><path id="" clip-rule="evenodd" transform="matrix(1 0 0 1 0 0)" d="M8.874E-06 842L595.5 842L595.5 842L595.5 -0.25L595.5 -0.25L8.874E-06 -0.25z" /></clipPath><clipPath id="14"><path id="" clip-rule="evenodd" transform="matrix(1 0 0 1 0 0)" d="M8.874E-06 842L595.5 842L595.5 842L595.5 -0.25L595.5 -0.25L8.874E-06 -0.25z" /></clipPath><clipPath id="15"><path id="" clip-rule="evenodd" transform="matrix(1 0 0 1 0 0)" d="M8.874E-06 842L595.5 842L595.5 842L595.5 -0.25L595.5 -0.25L8.874E-06 -0.25z" /></clipPath><clipPath id="16"><path id="" clip-rule="evenodd" transform="matrix(1 0 0 1 0 0)" d="M8.874E-06 842L595.5 842L595.5 842L595.5 -0.25L595.5 -0.25L8.874E-06 -0.25z" /></clipPath><clipPath id="17"><path id="" clip-rule="evenodd" transform="matrix(1 0 0 1 0 0)" d="M8.874E-06 842L595.5 842L595.5 842L595.5 -0.25L595.5 -0.25L8.874E-06 -0.25z" /></clipPath><clipPath id="18"><path id="" clip-rule="evenodd" transform="matrix(1 0 0 1 0 0)" d="M8.874E-06 842L595.5 842L595.5 842L595.5 -0.25L595.5 -0.25L8.874E-06 -0.25z" /></clipPath><clipPath id="19"><path id="" clip-rule="evenodd" transform="matrix(1 0 0 1 0 0)" d="M8.874E-06 842L595.5 842L595.5 842L595.5 -0.25L595.5 -0.25L8.874E-06 -0.25z" /></clipPath><clipPath id="20"><path id="" clip-rule="evenodd" transform="matrix(1 0 0 1 0 0)" d="M8.874E-06 842L595.5 842L595.5 842L595.5 -0.25L595.5 -0.25L8.874E-06 -0.25z" /></clipPath><clipPath id="21"><path id="" clip-rule="evenodd" transform="matrix(1 0 0 1 0 0)" d="M8.874E-06 842L595.5 842L595.5 842L595.5 -0.25L595.5 -0.25L8.874E-06 -0.25z" /></clipPath><clipPath id="22"><path id="" clip-rule="evenodd" transform="matrix(1 0 0 1 0 0)" d="M8.874E-06 842L595.5 842L595.5 842L595.5 -0.25L595.5 -0.25L8.874E-06 -0.25z" /></clipPath><clipPath id="23"><path id="" clip-rule="evenodd" transform="matrix(1 0 0 1 0 0)" d="M8.874E-06 842L595.5 842L595.5 842L595.5 -0.25L595.5 -0.25L8.874E-06 -0.25z" /></clipPath><clipPath id="24"><path id="" clip-rule="evenodd" transform="matrix(1 0 0 1 0 0)" d="M8.874E-06 842L595.5 842L595.5 842L595.5 -0.25L595.5 -0.25L8.874E-06 -0.25z" /></clipPath><clipPath id="25"><path id="" clip-rule="evenodd" transform="matrix(1 0 0 1 0 0)" d="M8.874E-06 842L595.5 842L595.5 842L595.5 -0.25L595.5 -0.25L8.874E-06 -0.25z" /></clipPath><clipPath id="26"><path id="" clip-rule="evenodd" transform="matrix(1 0 0 1 0 0)" d="M8.874E-06 842L595.5 842L595.5 842L595.5 -0.25L595.5 -0.25L8.874E-06 -0.25z" /></clipPath><clipPath id="27"><path id="" clip-rule="evenodd" transform="matrix(1 0 0 1 0 0)" d="M8.874E-06 842L595.5 842L595.5 842L595.5 -0.25L595.5 -0.25L8.874E-06 -0.25z" /></clipPath><clipPath id="28"><path id="" clip-rule="evenodd" transform="matrix(1 0 0 1 0 0)" d="M8.874E-06 842L595.5 842L595.5 842L595.5 -0.25L595.5 -0.25L8.874E-06 -0.25z" /></clipPath><clipPath id="29"><path id="" clip-rule="evenodd" transform="matrix(1 0 0 1 0 0)" d="M8.874E-06 842L595.5 842L595.5 842L595.5 -0.25L595.5 -0.25L8.874E-06 -0.25z" /></clipPath><clipPath id="30"><path id="" clip-rule="evenodd" transform="matrix(1 0 0 1 0 0)" d="M8.874E-06 842L595.5 842L595.5 842L595.5 -0.25L595.5 -0.25L8.874E-06 -0.25z" /></clipPath><clipPath id="31"><path id="" clip-rule="evenodd" transform="matrix(1 0 0 1 0 0)" d="M8.874E-06 842L595.5 842L595.5 842L595.5 -0.25L595.5 -0.25L8.874E-06 -0.25z" /></clipPath><clipPath id="32"><path id="" clip-rule="evenodd" transform="matrix(1 0 0 1 0 0)" d="M8.874E-06 842L595.5 842L595.5 842L595.5 -0.25L595.5 -0.25L8.874E-06 -0.25z" /></clipPath><clipPath id="33"><path id="" clip-rule="evenodd" transform="matrix(1 0 0 1 0 0)" d="M8.874E-06 842L595.5 842L595.5 842L595.5 -0.25L595.5 -0.25L8.874E-06 -0.25z" /></clipPath><clipPath id="34"><path id="" clip-rule="evenodd" transform="matrix(1 0 0 1 0 0)" d="M8.874E-06 842L595.5 842L595.5 842L595.5 -0.25L595.5 -0.25L8.874E-06 -0.25z" /></clipPath><clipPath id="35"><path id="" clip-rule="evenodd" transform="matrix(1 0 0 1 0 0)" d="M8.874E-06 842L595.5 842L595.5 842L595.5 -0.25L595.5 -0.25L8.874E-06 -0.25z" /></clipPath><clipPath id="36"><path id="" clip-rule="evenodd" transform="matrix(1 0 0 1 0 0)" d="M8.874E-06 842L595.5 842L595.5 842L595.5 -0.25L595.5 -0.25L8.874E-06 -0.25z" /></clipPath><clipPath id="37"><path id="" clip-rule="evenodd" transform="matrix(1 0 0 1 0 0)" d="M8.874E-06 842L595.5 842L595.5 842L595.5 -0.25L595.5 -0.25L8.874E-06 -0.25z" /></clipPath><clipPath id="38"><path id="" clip-rule="evenodd" transform="matrix(1 0 0 1 0 0)" d="M8.874E-06 842L595.5 842L595.5 842L595.5 -0.25L595.5 -0.25L8.874E-06 -0.25z" /></clipPath><clipPath id="39"><path id="" clip-rule="evenodd" transform="matrix(1 0 0 1 0 0)" d="M8.874E-06 842L595.5 842L595.5 842L595.5 -0.25L595.5 -0.25L8.874E-06 -0.25z" /></clipPath><clipPath id="40"><path id="" clip-rule="evenodd" transform="matrix(1 0 0 1 0 0)" d="M8.874E-06 842L595.5 842L595.5 842L595.5 -0.25L595.5 -0.25L8.874E-06 -0.25z" /></clipPath><clipPath id="41"><path id="" clip-rule="evenodd" transform="matrix(1 0 0 1 0 0)" d="M8.874E-06 842L595.5 842L595.5 842L595.5 -0.25L595.5 -0.25L8.874E-06 -0.25z" /></clipPath><clipPath id="42"><path id="" clip-rule="evenodd" transform="matrix(1 0 0 1 0 0)" d="M8.874E-06 842L595.5 842L595.5 842L595.5 -0.25L595.5 -0.25L8.874E-06 -0.25z" /></clipPath><clipPath id="43"><path id="" clip-rule="evenodd" transform="matrix(1 0 0 1 0 0)" d="M8.874E-06 842L595.5 842L595.5 842L595.5 -0.25L595.5 -0.25L8.874E-06 -0.25z" /></clipPath><clipPath id="44"><path id="" clip-rule="evenodd" transform="matrix(1 0 0 1 0 0)" d="M8.874E-06 842L595.5 842L595.5 842L595.5 -0.25L595.5 -0.25L8.874E-06 -0.25z" /></clipPath><clipPath id="45"><path id="" clip-rule="evenodd" transform="matrix(1 0 0 1 0 0)" d="M8.874E-06 842L595.5 842L595.5 842L595.5 -0.25L595.5 -0.25L8.874E-06 -0.25z" /></clipPath><clipPath id="46"><path id="" clip-rule="evenodd" transform="matrix(1 0 0 1 0 0)" d="M8.874E-06 842L595.5 842L595.5 842L595.5 -0.25L595.5 -0.25L8.874E-06 -0.25z" /></clipPath><clipPath id="47"><path id="" clip-rule="evenodd" transform="matrix(1 0 0 1 0 0)" d="M8.874E-06 842L595.5 842L595.5 842L595.5 -0.25L595.5 -0.25L8.874E-06 -0.25z" /></clipPath><clipPath id="48"><path id="" clip-rule="evenodd" transform="matrix(1 0 0 1 0 0)" d="M8.874E-06 842L595.5 842L595.5 842L595.5 -0.25L595.5 -0.25L8.874E-06 -0.25z" /></clipPath><clipPath id="49"><path id="" clip-rule="evenodd" transform="matrix(1 0 0 1 0 0)" d="M8.874E-06 842L595.5 842L595.5 842L595.5 -0.25L595.5 -0.25L8.874E-06 -0.25z" /></clipPath><clipPath id="50"><path id="" clip-rule="evenodd" transform="matrix(1 0 0 1 0 0)" d="M8.874E-06 842L595.5 842L595.5 842L595.5 -0.25L595.5 -0.25L8.874E-06 -0.25z" /></clipPath><clipPath id="51"><path id="" clip-rule="evenodd" transform="matrix(1 0 0 1 0 0)" d="M8.874E-06 842L595.5 842L595.5 842L595.5 -0.25L595.5 -0.25L8.874E-06 -0.25z" /></clipPath><clipPath id="52"><path id="" clip-rule="evenodd" transform="matrix(1 0 0 1 0 0)" d="M8.874E-06 842L595.5 842L595.5 842L595.5 -0.25L595.5 -0.25L8.874E-06 -0.25z" /></clipPath><clipPath id="53"><path id="" clip-rule="evenodd" transform="matrix(1 0 0 1 0 0)" d="M8.874E-06 842L595.5 842L595.5 842L595.5 -0.25L595.5 -0.25L8.874E-06 -0.25z" /></clipPath><clipPath id="54"><path id="" clip-rule="evenodd" transform="matrix(1 0 0 1 0 0)" d="M8.874E-06 842L595.5 842L595.5 842L595.5 -0.25L595.5 -0.25L8.874E-06 -0.25z" /></clipPath><clipPath id="55"><path id="" clip-rule="evenodd" transform="matrix(1 0 0 1 0 0)" d="M8.874E-06 842L595.5 842L595.5 842L595.5 -0.25L595.5 -0.25L8.874E-06 -0.25z" /></clipPath><clipPath id="56"><path id="" clip-rule="evenodd" transform="matrix(1 0 0 1 0 0)" d="M8.874E-06 842L595.5 842L595.5 842L595.5 -0.25L595.5 -0.25L8.874E-06 -0.25z" /></clipPath><clipPath id="57"><path id="" clip-rule="evenodd" transform="matrix(1 0 0 1 0 0)" d="M8.874E-06 842L595.5 842L595.5 842L595.5 -0.25L595.5 -0.25L8.874E-06 -0.25z" /></clipPath><clipPath id="58"><path id="" clip-rule="evenodd" transform="matrix(1 0 0 1 0 0)" d="M8.874E-06 842L595.5 842L595.5 842L595.5 -0.25L595.5 -0.25L8.874E-06 -0.25z" /></clipPath><clipPath id="59"><path id="" clip-rule="evenodd" transform="matrix(1 0 0 1 0 0)" d="M8.874E-06 842L595.5 842L595.5 842L595.5 -0.25L595.5 -0.25L8.874E-06 -0.25z" /></clipPath><clipPath id="60"><path id="" clip-rule="evenodd" transform="matrix(1 0 0 1 0 0)" d="M8.874E-06 842L595.5 842L595.5 842L595.5 -0.25L595.5 -0.25L8.874E-06 -0.25z" /></clipPath><clipPath id="61"><path id="" clip-rule="evenodd" transform="matrix(1 0 0 1 0 0)" d="M8.874E-06 842L595.5 842L595.5 842L595.5 -0.25L595.5 -0.25L8.874E-06 -0.25z" /></clipPath><clipPath id="62"><path id="" clip-rule="evenodd" transform="matrix(1 0 0 1 0 0)" d="M8.874E-06 842L595.5 842L595.5 842L595.5 -0.25L595.5 -0.25L8.874E-06 -0.25z" /></clipPath><clipPath id="63"><path id="" clip-rule="evenodd" transform="matrix(1 0 0 1 0 0)" d="M8.874E-06 842L595.5 842L595.5 842L595.5 -0.25L595.5 -0.25L8.874E-06 -0.25z" /></clipPath><clipPath id="64"><path id="" clip-rule="evenodd" transform="matrix(1 0 0 1 0 0)" d="M8.874E-06 842L595.5 842L595.5 842L595.5 -0.25L595.5 -0.25L8.874E-06 -0.25z" /></clipPath><clipPath id="65"><path id="" clip-rule="evenodd" transform="matrix(1 0 0 1 0 0)" d="M8.874E-06 842L595.5 842L595.5 842L595.5 -0.25L595.5 -0.25L8.874E-06 -0.25z" /></clipPath><clipPath id="66"><path id="" clip-rule="evenodd" transform="matrix(1 0 0 1 0 0)" d="M8.874E-06 842L595.5 842L595.5 842L595.5 -0.25L595.5 -0.25L8.874E-06 -0.25z" /></clipPath><clipPath id="67"><path id="" clip-rule="evenodd" transform="matrix(1 0 0 1 0 0)" d="M8.874E-06 842L595.5 842L595.5 842L595.5 -0.25L595.5 -0.25L8.874E-06 -0.25z" /></clipPath><clipPath id="68"><path id="" clip-rule="evenodd" transform="matrix(1 0 0 1 0 0)" d="M8.874E-06 842L595.5 842L595.5 842L595.5 -0.25L595.5 -0.25L8.874E-06 -0.25z" /></clipPath><clipPath id="69"><path id="" clip-rule="evenodd" transform="matrix(1 0 0 1 0 0)" d="M8.874E-06 842L595.5 842L595.5 842L595.5 -0.25L595.5 -0.25L8.874E-06 -0.25z" /></clipPath><clipPath id="70"><path id="" clip-rule="evenodd" transform="matrix(1 0 0 1 0 0)" d="M8.874E-06 842L595.5 842L595.5 842L595.5 -0.25L595.5 -0.25L8.874E-06 -0.25z" /></clipPath><clipPath id="71"><path id="" clip-rule="evenodd" transform="matrix(1 0 0 1 0 0)" d="M8.874E-06 842L595.5 842L595.5 842L595.5 -0.25L595.5 -0.25L8.874E-06 -0.25z" /></clipPath><clipPath id="72"><path id="" clip-rule="evenodd" transform="matrix(1 0 0 1 0 0)" d="M8.874E-06 842L595.5 842L595.5 842L595.5 -0.25L595.5 -0.25L8.874E-06 -0.25z" /></clipPath><clipPath id="73"><path id="" clip-rule="evenodd" transform="matrix(1 0 0 1 0 0)" d="M8.874E-06 842L595.5 842L595.5 842L595.5 -0.25L595.5 -0.25L8.874E-06 -0.25z" /></clipPath><clipPath id="74"><path id="" clip-rule="evenodd" transform="matrix(1 0 0 1 0 0)" d="M8.874E-06 842L595.5 842L595.5 842L595.5 -0.25L595.5 -0.25L8.874E-06 -0.25z" /></clipPath><clipPath id="75"><path id="" clip-rule="evenodd" transform="matrix(1 0 0 1 0 0)" d="M8.874E-06 842L595.5 842L595.5 842L595.5 -0.25L595.5 -0.25L8.874E-06 -0.25z" /></clipPath><clipPath id="76"><path id="" clip-rule="evenodd" transform="matrix(1 0 0 1 0 0)" d="M8.874E-06 842L595.5 842L595.5 842L595.5 -0.25L595.5 -0.25L8.874E-06 -0.25z" /></clipPath><clipPath id="77"><path id="" clip-rule="evenodd" transform="matrix(1 0 0 1 0 0)" d="M8.874E-06 842L595.5 842L595.5 842L595.5 -0.25L595.5 -0.25L8.874E-06 -0.25z" /></clipPath><clipPath id="78"><path id="" clip-rule="evenodd" transform="matrix(1 0 0 1 0 0)" d="M8.874E-06 842L595.5 842L595.5 842L595.5 -0.25L595.5 -0.25L8.874E-06 -0.25z" /></clipPath><clipPath id="79"><path id="" clip-rule="evenodd" transform="matrix(1 0 0 1 0 0)" d="M8.874E-06 842L595.5 842L595.5 842L595.5 -0.25L595.5 -0.25L8.874E-06 -0.25z" /></clipPath><clipPath id="80"><path id="" clip-rule="evenodd" transform="matrix(1 0 0 1 0 0)" d="M8.874E-06 842L595.5 842L595.5 842L595.5 -0.25L595.5 -0.25L8.874E-06 -0.25z" /></clipPath><clipPath id="81"><path id="" clip-rule="evenodd" transform="matrix(1 0 0 1 0 0)" d="M8.874E-06 842L595.5 842L595.5 842L595.5 -0.25L595.5 -0.25L8.874E-06 -0.25z" /></clipPath><clipPath id="82"><path id="" clip-rule="evenodd" transform="matrix(1 0 0 1 0 0)" d="M8.874E-06 842L595.5 842L595.5 842L595.5 -0.25L595.5 -0.25L8.874E-06 -0.25z" /></clipPath><clipPath id="83"><path id="" clip-rule="evenodd" transform="matrix(1 0 0 1 0 0)" d="M8.874E-06 842L595.5 842L595.5 842L595.5 -0.25L595.5 -0.25L8.874E-06 -0.25z" /></clipPath><clipPath id="84"><path id="" clip-rule="evenodd" transform="matrix(1 0 0 1 0 0)" d="M8.874E-06 842L595.5 842L595.5 842L595.5 -0.25L595.5 -0.25L8.874E-06 -0.25z" /></clipPath><clipPath id="85"><path id="" clip-rule="evenodd" transform="matrix(1 0 0 1 0 0)" d="M8.874E-06 842L595.5 842L595.5 842L595.5 -0.25L595.5 -0.25L8.874E-06 -0.25z" /></clipPath><clipPath id="86"><path id="" clip-rule="evenodd" transform="matrix(1 0 0 1 0 0)" d="M8.874E-06 842L595.5 842L595.5 842L595.5 -0.25L595.5 -0.25L8.874E-06 -0.25z" /></clipPath><clipPath id="87"><path id="" clip-rule="evenodd" transform="matrix(1 0 0 1 0 0)" d="M8.874E-06 842L595.5 842L595.5 842L595.5 -0.25L595.5 -0.25L8.874E-06 -0.25z" /></clipPath><clipPath id="88"><path id="" clip-rule="evenodd" transform="matrix(1 0 0 1 0 0)" d="M8.874E-06 842L595.5 842L595.5 842L595.5 -0.25L595.5 -0.25L8.874E-06 -0.25z" /></clipPath><clipPath id="89"><path id="" clip-rule="evenodd" transform="matrix(1 0 0 1 0 0)" d="M8.874E-06 842L595.5 842L595.5 842L595.5 -0.25L595.5 -0.25L8.874E-06 -0.25z" /></clipPath><clipPath id="90"><path id="" clip-rule="evenodd" transform="matrix(1 0 0 1 0 0)" d="M8.874E-06 842L595.5 842L595.5 842L595.5 -0.25L595.5 -0.25L8.874E-06 -0.25z" /></clipPath><clipPath id="91"><path id="" clip-rule="evenodd" transform="matrix(1 0 0 1 0 0)" d="M8.874E-06 842L595.5 842L595.5 842L595.5 -0.25L595.5 -0.25L8.874E-06 -0.25z" /></clipPath><clipPath id="92"><path id="" clip-rule="evenodd" transform="matrix(1 0 0 1 0 0)" d="M8.874E-06 842L595.5 842L595.5 842L595.5 -0.25L595.5 -0.25L8.874E-06 -0.25z" /></clipPath><clipPath id="93"><path id="" clip-rule="evenodd" transform="matrix(1 0 0 1 0 0)" d="M8.874E-06 842L595.5 842L595.5 842L595.5 -0.25L595.5 -0.25L8.874E-06 -0.25z" /></clipPath><clipPath id="94"><path id="" clip-rule="evenodd" transform="matrix(1 0 0 1 0 0)" d="M8.874E-06 842L595.5 842L595.5 842L595.5 -0.25L595.5 -0.25L8.874E-06 -0.25z" /></clipPath><clipPath id="95"><path id="" clip-rule="evenodd" transform="matrix(1 0 0 1 0 0)" d="M8.874E-06 842L595.5 842L595.5 842L595.5 -0.25L595.5 -0.25L8.874E-06 -0.25z" /></clipPath><clipPath id="96"><path id="" clip-rule="evenodd" transform="matrix(1 0 0 1 0 0)" d="M8.874E-06 842L595.5 842L595.5 842L595.5 -0.25L595.5 -0.25L8.874E-06 -0.25z" /></clipPath><clipPath id="97"><path id="" clip-rule="evenodd" transform="matrix(1 0 0 1 0 0)" d="M8.874E-06 842L595.5 842L595.5 842L595.5 -0.25L595.5 -0.25L8.874E-06 -0.25z" /></clipPath><clipPath id="98"><path id="" clip-rule="evenodd" transform="matrix(1 0 0 1 0 0)" d="M8.874E-06 842L595.5 842L595.5 842L595.5 -0.25L595.5 -0.25L8.874E-06 -0.25z" /></clipPath><clipPath id="99"><path id="" clip-rule="evenodd" transform="matrix(1 0 0 1 0 0)" d="M8.874E-06 842L595.5 842L595.5 842L595.5 -0.25L595.5 -0.25L8.874E-06 -0.25z" /></clipPath><clipPath id="100"><path id="" clip-rule="evenodd" transform="matrix(1 0 0 1 0 0)" d="M8.874E-06 842L595.5 842L595.5 842L595.5 -0.25L595.5 -0.25L8.874E-06 -0.25z" /></clipPath><clipPath id="101"><path id="" clip-rule="evenodd" transform="matrix(1 0 0 1 0 0)" d="M8.874E-06 842L595.5 842L595.5 842L595.5 -0.25L595.5 -0.25L8.874E-06 -0.25z" /></clipPath><clipPath id="102"><path id="" clip-rule="evenodd" transform="matrix(1 0 0 1 0 0)" d="M8.874E-06 842L595.5 842L595.5 842L595.5 -0.25L595.5 -0.25L8.874E-06 -0.25z" /></clipPath><clipPath id="103"><path id="" clip-rule="evenodd" transform="matrix(1 0 0 1 0 0)" d="M8.874E-06 842L595.5 842L595.5 842L595.5 -0.25L595.5 -0.25L8.874E-06 -0.25z" /></clipPath><clipPath id="104"><path id="" clip-rule="evenodd" transform="matrix(1 0 0 1 0 0)" d="M8.874E-06 842L595.5 842L595.5 842L595.5 -0.25L595.5 -0.25L8.874E-06 -0.25z" /></clipPath><clipPath id="105"><path id="" clip-rule="evenodd" transform="matrix(1 0 0 1 0 0)" d="M8.874E-06 842L595.5 842L595.5 842L595.5 -0.25L595.5 -0.25L8.874E-06 -0.25z" /></clipPath><clipPath id="106"><path id="" clip-rule="evenodd" transform="matrix(1 0 0 1 0 0)" d="M8.874E-06 842L595.5 842L595.5 842L595.5 -0.25L595.5 -0.25L8.874E-06 -0.25z" /></clipPath><clipPath id="107"><path id="" clip-rule="evenodd" transform="matrix(1 0 0 1 0 0)" d="M8.874E-06 842L595.5 842L595.5 842L595.5 -0.25L595.5 -0.25L8.874E-06 -0.25z" /></clipPath><clipPath id="108"><path id="" clip-rule="evenodd" transform="matrix(1 0 0 1 0 0)" d="M8.874E-06 842L595.5 842L595.5 842L595.5 -0.25L595.5 -0.25L8.874E-06 -0.25z" /></clipPath><clipPath id="109"><path id="" clip-rule="evenodd" transform="matrix(1 0 0 1 0 0)" d="M8.874E-06 842L595.5 842L595.5 842L595.5 -0.25L595.5 -0.25L8.874E-06 -0.25z" /></clipPath><clipPath id="110"><path id="" clip-rule="evenodd" transform="matrix(1 0 0 1 0 0)" d="M8.874E-06 842L595.5 842L595.5 842L595.5 -0.25L595.5 -0.25L8.874E-06 -0.25z" /></clipPath><clipPath id="111"><path id="" clip-rule="evenodd" transform="matrix(1 0 0 1 0 0)" d="M8.874E-06 842L595.5 842L595.5 842L595.5 -0.25L595.5 -0.25L8.874E-06 -0.25z" /></clipPath><clipPath id="112"><path id="" clip-rule="evenodd" transform="matrix(1 0 0 1 0 0)" d="M8.874E-06 842L595.5 842L595.5 842L595.5 -0.25L595.5 -0.25L8.874E-06 -0.25z" /></clipPath><clipPath id="113"><path id="" clip-rule="evenodd" transform="matrix(1 0 0 1 0 0)" d="M8.874E-06 842L595.5 842L595.5 842L595.5 -0.25L595.5 -0.25L8.874E-06 -0.25z" /></clipPath><clipPath id="114"><path id="" clip-rule="evenodd" transform="matrix(1 0 0 1 0 0)" d="M8.874E-06 842L595.5 842L595.5 842L595.5 -0.25L595.5 -0.25L8.874E-06 -0.25z" /></clipPath><clipPath id="115"><path id="" clip-rule="evenodd" transform="matrix(1 0 0 1 0 0)" d="M8.874E-06 842L595.5 842L595.5 842L595.5 -0.25L595.5 -0.25L8.874E-06 -0.25z" /></clipPath><clipPath id="116"><path id="" clip-rule="evenodd" transform="matrix(1 0 0 1 0 0)" d="M8.874E-06 842L595.5 842L595.5 842L595.5 -0.25L595.5 -0.25L8.874E-06 -0.25z" /></clipPath><clipPath id="117"><path id="" clip-rule="evenodd" transform="matrix(1 0 0 1 0 0)" d="M8.874E-06 842L595.5 842L595.5 842L595.5 -0.25L595.5 -0.25L8.874E-06 -0.25z" /></clipPath><clipPath id="118"><path id="" clip-rule="evenodd" transform="matrix(1 0 0 1 0 0)" d="M8.874E-06 842L595.5 842L595.5 842L595.5 -0.25L595.5 -0.25L8.874E-06 -0.25z" /></clipPath><clipPath id="119"><path id="" clip-rule="evenodd" transform="matrix(1 0 0 1 0 0)" d="M8.874E-06 842L595.5 842L595.5 842L595.5 -0.25L595.5 -0.25L8.874E-06 -0.25z" /></clipPath><clipPath id="120"><path id="" clip-rule="evenodd" transform="matrix(1 0 0 1 0 0)" d="M8.874E-06 842L595.5 842L595.5 842L595.5 -0.25L595.5 -0.25L8.874E-06 -0.25z" /></clipPath><clipPath id="121"><path id="" clip-rule="evenodd" transform="matrix(1 0 0 1 0 0)" d="M8.874E-06 842L595.5 842L595.5 842L595.5 -0.25L595.5 -0.25L8.874E-06 -0.25z" /></clipPath><clipPath id="122"><path id="" clip-rule="evenodd" transform="matrix(1 0 0 1 0 0)" d="M8.874E-06 842L595.5 842L595.5 842L595.5 -0.25L595.5 -0.25L8.874E-06 -0.25z" /></clipPath><clipPath id="123"><path id="" clip-rule="evenodd" transform="matrix(1 0 0 1 0 0)" d="M8.874E-06 842L595.5 842L595.5 842L595.5 -0.25L595.5 -0.25L8.874E-06 -0.25z" /></clipPath><clipPath id="124"><path id="" clip-rule="evenodd" transform="matrix(1 0 0 1 0 0)" d="M8.874E-06 842L595.5 842L595.5 842L595.5 -0.25L595.5 -0.25L8.874E-06 -0.25z" /></clipPath><clipPath id="125"><path id="" clip-rule="evenodd" transform="matrix(1 0 0 1 0 0)" d="M8.874E-06 842L595.5 842L595.5 842L595.5 -0.25L595.5 -0.25L8.874E-06 -0.25z" /></clipPath><clipPath id="126"><path id="" clip-rule="evenodd" transform="matrix(1 0 0 1 0 0)" d="M8.874E-06 842L595.5 842L595.5 842L595.5 -0.25L595.5 -0.25L8.874E-06 -0.25z" /></clipPath><clipPath id="127"><path id="" clip-rule="evenodd" transform="matrix(1 0 0 1 0 0)" d="M8.874E-06 842L595.5 842L595.5 842L595.5 -0.25L595.5 -0.25L8.874E-06 -0.25z" /></clipPath><clipPath id="128"><path id="" clip-rule="evenodd" transform="matrix(1 0 0 1 0 0)" d="M8.874E-06 842L595.5 842L595.5 842L595.5 -0.25L595.5 -0.25L8.874E-06 -0.25z" /></clipPath><clipPath id="129"><path id="" clip-rule="evenodd" transform="matrix(1 0 0 1 0 0)" d="M8.874E-06 842L595.5 842L595.5 842L595.5 -0.25L595.5 -0.25L8.874E-06 -0.25z" /></clipPath><clipPath id="130"><path id="" clip-rule="evenodd" transform="matrix(1 0 0 1 0 0)" d="M8.874E-06 842L595.5 842L595.5 842L595.5 -0.25L595.5 -0.25L8.874E-06 -0.25z" /></clipPath><clipPath id="131"><path id="" clip-rule="evenodd" transform="matrix(1 0 0 1 0 0)" d="M8.874E-06 842L595.5 842L595.5 842L595.5 -0.25L595.5 -0.25L8.874E-06 -0.25z" /></clipPath><clipPath id="132"><path id="" clip-rule="evenodd" transform="matrix(1 0 0 1 0 0)" d="M8.874E-06 842L595.5 842L595.5 842L595.5 -0.25L595.5 -0.25L8.874E-06 -0.25z" /></clipPath><clipPath id="133"><path id="" clip-rule="evenodd" transform="matrix(1 0 0 1 0 0)" d="M8.874E-06 842L595.5 842L595.5 842L595.5 -0.25L595.5 -0.25L8.874E-06 -0.25z" /></clipPath><clipPath id="134"><path id="" clip-rule="evenodd" transform="matrix(1 0 0 1 0 0)" d="M8.874E-06 842L595.5 842L595.5 842L595.5 -0.25L595.5 -0.25L8.874E-06 -0.25z" /></clipPath><clipPath id="135"><path id="" clip-rule="evenodd" transform="matrix(1 0 0 1 0 0)" d="M8.874E-06 842L595.5 842L595.5 842L595.5 -0.25L595.5 -0.25L8.874E-06 -0.25z" /></clipPath><clipPath id="136"><path id="" clip-rule="evenodd" transform="matrix(1 0 0 1 0 0)" d="M8.874E-06 842L595.5 842L595.5 842L595.5 -0.25L595.5 -0.25L8.874E-06 -0.25z" /></clipPath><clipPath id="137"><path id="" clip-rule="evenodd" transform="matrix(1 0 0 1 0 0)" d="M8.874E-06 842L595.5 842L595.5 842L595.5 -0.25L595.5 -0.25L8.874E-06 -0.25z" /></clipPath><clipPath id="138"><path id="" clip-rule="evenodd" transform="matrix(1 0 0 1 0 0)" d="M8.874E-06 842L595.5 842L595.5 842L595.5 -0.25L595.5 -0.25L8.874E-06 -0.25z" /></clipPath><clipPath id="139"><path id="" clip-rule="evenodd" transform="matrix(1 0 0 1 0 0)" d="M8.874E-06 842L595.5 842L595.5 842L595.5 -0.25L595.5 -0.25L8.874E-06 -0.25z" /></clipPath><clipPath id="140"><path id="" clip-rule="evenodd" transform="matrix(1 0 0 1 0 0)" d="M8.874E-06 842L595.5 842L595.5 842L595.5 -0.25L595.5 -0.25L8.874E-06 -0.25z" /></clipPath><clipPath id="141"><path id="" clip-rule="evenodd" transform="matrix(1 0 0 1 0 0)" d="M8.874E-06 842L595.5 842L595.5 842L595.5 -0.25L595.5 -0.25L8.874E-06 -0.25z" /></clipPath><clipPath id="142"><path id="" clip-rule="evenodd" transform="matrix(1 0 0 1 0 0)" d="M8.874E-06 842L595.5 842L595.5 842L595.5 -0.25L595.5 -0.25L8.874E-06 -0.25z" /></clipPath><clipPath id="143"><path id="" clip-rule="evenodd" transform="matrix(1 0 0 1 0 0)" d="M8.874E-06 842L595.5 842L595.5 842L595.5 -0.25L595.5 -0.25L8.874E-06 -0.25z" /></clipPath><clipPath id="144"><path id="" clip-rule="evenodd" transform="matrix(1 0 0 1 0 0)" d="M8.874E-06 842L595.5 842L595.5 842L595.5 -0.25L595.5 -0.25L8.874E-06 -0.25z" /></clipPath><clipPath id="145"><path id="" clip-rule="evenodd" transform="matrix(1 0 0 1 0 0)" d="M8.874E-06 842L595.5 842L595.5 842L595.5 -0.25L595.5 -0.25L8.874E-06 -0.25z" /></clipPath><clipPath id="146"><path id="" clip-rule="evenodd" transform="matrix(1 0 0 1 0 0)" d="M8.874E-06 842L595.5 842L595.5 842L595.5 -0.25L595.5 -0.25L8.874E-06 -0.25z" /></clipPath><clipPath id="147"><path id="" clip-rule="evenodd" transform="matrix(1 0 0 1 0 0)" d="M8.874E-06 842L595.5 842L595.5 842L595.5 -0.25L595.5 -0.25L8.874E-06 -0.25z" /></clipPath><clipPath id="148"><path id="" clip-rule="evenodd" transform="matrix(1 0 0 1 0 0)" d="M8.874E-06 842L595.5 842L595.5 842L595.5 -0.25L595.5 -0.25L8.874E-06 -0.25z" /></clipPath><clipPath id="149"><path id="" clip-rule="evenodd" transform="matrix(1 0 0 1 0 0)" d="M8.874E-06 842L595.5 842L595.5 842L595.5 -0.25L595.5 -0.25L8.874E-06 -0.25z" /></clipPath><clipPath id="150"><path id="" clip-rule="evenodd" transform="matrix(1 0 0 1 0 0)" d="M8.874E-06 842L595.5 842L595.5 842L595.5 -0.25L595.5 -0.25L8.874E-06 -0.25z" /></clipPath><clipPath id="151"><path id="" clip-rule="evenodd" transform="matrix(1 0 0 1 0 0)" d="M8.874E-06 842L595.5 842L595.5 842L595.5 -0.25L595.5 -0.25L8.874E-06 -0.25z" /></clipPath><clipPath id="152"><path id="" clip-rule="evenodd" transform="matrix(1 0 0 1 0 0)" d="M8.874E-06 842L595.5 842L595.5 842L595.5 -0.25L595.5 -0.25L8.874E-06 -0.25z" /></clipPath><clipPath id="153"><path id="" clip-rule="evenodd" transform="matrix(1 0 0 1 0 0)" d="M8.874E-06 842L595.5 842L595.5 842L595.5 -0.25L595.5 -0.25L8.874E-06 -0.25z" /></clipPath><clipPath id="154"><path id="" clip-rule="evenodd" transform="matrix(1 0 0 1 0 0)" d="M8.874E-06 842L595.5 842L595.5 842L595.5 -0.25L595.5 -0.25L8.874E-06 -0.25z" /></clipPath><clipPath id="155"><path id="" clip-rule="evenodd" transform="matrix(1 0 0 1 0 0)" d="M8.874E-06 842L595.5 842L595.5 842L595.5 -0.25L595.5 -0.25L8.874E-06 -0.25z" /></clipPath><clipPath id="156"><path id="" clip-rule="evenodd" transform="matrix(1 0 0 1 0 0)" d="M8.874E-06 842L595.5 842L595.5 842L595.5 -0.25L595.5 -0.25L8.874E-06 -0.25z" /></clipPath><clipPath id="157"><path id="" clip-rule="evenodd" transform="matrix(1 0 0 1 0 0)" d="M8.874E-06 842L595.5 842L595.5 842L595.5 -0.25L595.5 -0.25L8.874E-06 -0.25z" /></clipPath><clipPath id="158"><path id="" clip-rule="evenodd" transform="matrix(1 0 0 1 0 0)" d="M8.874E-06 842L595.5 842L595.5 842L595.5 -0.25L595.5 -0.25L8.874E-06 -0.25z" /></clipPath><clipPath id="159"><path id="" clip-rule="evenodd" transform="matrix(1 0 0 1 0 0)" d="M8.874E-06 842L595.5 842L595.5 842L595.5 -0.25L595.5 -0.25L8.874E-06 -0.25z" /></clipPath><clipPath id="160"><path id="" clip-rule="evenodd" transform="matrix(1 0 0 1 0 0)" d="M8.874E-06 842L595.5 842L595.5 842L595.5 -0.25L595.5 -0.25L8.874E-06 -0.25z" /></clipPath><clipPath id="161"><path id="" clip-rule="evenodd" transform="matrix(1 0 0 1 0 0)" d="M8.874E-06 842L595.5 842L595.5 842L595.5 -0.25L595.5 -0.25L8.874E-06 -0.25z" /></clipPath><clipPath id="162"><path id="" clip-rule="evenodd" transform="matrix(1 0 0 1 0 0)" d="M8.874E-06 842L595.5 842L595.5 842L595.5 -0.25L595.5 -0.25L8.874E-06 -0.25z" /></clipPath><clipPath id="163"><path id="" clip-rule="evenodd" transform="matrix(1 0 0 1 0 0)" d="M8.874E-06 842L595.5 842L595.5 842L595.5 -0.25L595.5 -0.25L8.874E-06 -0.25z" /></clipPath><clipPath id="164"><path id="" clip-rule="evenodd" transform="matrix(1 0 0 1 0 0)" d="M8.874E-06 842L595.5 842L595.5 842L595.5 -0.25L595.5 -0.25L8.874E-06 -0.25z" /></clipPath><clipPath id="165"><path id="" clip-rule="evenodd" transform="matrix(1 0 0 1 0 0)" d="M8.874E-06 842L595.5 842L595.5 842L595.5 -0.25L595.5 -0.25L8.874E-06 -0.25z" /></clipPath><clipPath id="166"><path id="" clip-rule="evenodd" transform="matrix(1 0 0 1 0 0)" d="M8.874E-06 842L595.5 842L595.5 842L595.5 -0.25L595.5 -0.25L8.874E-06 -0.25z" /></clipPath><clipPath id="167"><path id="" clip-rule="evenodd" transform="matrix(1 0 0 1 0 0)" d="M8.874E-06 842L595.5 842L595.5 842L595.5 -0.25L595.5 -0.25L8.874E-06 -0.25z" /></clipPath><clipPath id="168"><path id="" clip-rule="evenodd" transform="matrix(1 0 0 1 0 0)" d="M8.874E-06 842L595.5 842L595.5 842L595.5 -0.25L595.5 -0.25L8.874E-06 -0.25z" /></clipPath><clipPath id="169"><path id="" clip-rule="evenodd" transform="matrix(1 0 0 1 0 0)" d="M8.874E-06 842L595.5 842L595.5 842L595.5 -0.25L595.5 -0.25L8.874E-06 -0.25z" /></clipPath><clipPath id="170"><path id="" clip-rule="evenodd" transform="matrix(1 0 0 1 0 0)" d="M8.874E-06 842L595.5 842L595.5 842L595.5 -0.25L595.5 -0.25L8.874E-06 -0.25z" /></clipPath><clipPath id="171"><path id="" clip-rule="evenodd" transform="matrix(1 0 0 1 0 0)" d="M8.874E-06 842L595.5 842L595.5 842L595.5 -0.25L595.5 -0.25L8.874E-06 -0.25z" /></clipPath><clipPath id="172"><path id="" clip-rule="evenodd" transform="matrix(1 0 0 1 0 0)" d="M8.874E-06 842L595.5 842L595.5 842L595.5 -0.25L595.5 -0.25L8.874E-06 -0.25z" /></clipPath><clipPath id="173"><path id="" clip-rule="evenodd" transform="matrix(1 0 0 1 0 0)" d="M8.874E-06 842L595.5 842L595.5 842L595.5 -0.25L595.5 -0.25L8.874E-06 -0.25z" /></clipPath><clipPath id="174"><path id="" clip-rule="evenodd" transform="matrix(1 0 0 1 0 0)" d="M8.874E-06 842L595.5 842L595.5 842L595.5 -0.25L595.5 -0.25L8.874E-06 -0.25z" /></clipPath><clipPath id="175"><path id="" clip-rule="evenodd" transform="matrix(1 0 0 1 0 0)" d="M8.874E-06 842L595.5 842L595.5 842L595.5 -0.25L595.5 -0.25L8.874E-06 -0.25z" /></clipPath><clipPath id="176"><path id="" clip-rule="evenodd" transform="matrix(1 0 0 1 0 0)" d="M8.874E-06 842L595.5 842L595.5 842L595.5 -0.25L595.5 -0.25L8.874E-06 -0.25z" /></clipPath><clipPath id="177"><path id="" clip-rule="evenodd" transform="matrix(1 0 0 1 0 0)" d="M8.874E-06 842L595.5 842L595.5 842L595.5 -0.25L595.5 -0.25L8.874E-06 -0.25z" /></clipPath><clipPath id="178"><path id="" clip-rule="evenodd" transform="matrix(1 0 0 1 0 0)" d="M8.874E-06 842L595.5 842L595.5 842L595.5 -0.25L595.5 -0.25L8.874E-06 -0.25z" /></clipPath><clipPath id="179"><path id="" clip-rule="evenodd" transform="matrix(1 0 0 1 0 0)" d="M8.874E-06 842L595.5 842L595.5 842L595.5 -0.25L595.5 -0.25L8.874E-06 -0.25z" /></clipPath><clipPath id="180"><path id="" clip-rule="evenodd" transform="matrix(1 0 0 1 0 0)" d="M8.874E-06 842L595.5 842L595.5 842L595.5 -0.25L595.5 -0.25L8.874E-06 -0.25z" /></clipPath><clipPath id="181"><path id="" clip-rule="evenodd" transform="matrix(1 0 0 1 0 0)" d="M8.874E-06 842L595.5 842L595.5 842L595.5 -0.25L595.5 -0.25L8.874E-06 -0.25z" /></clipPath><clipPath id="182"><path id="" clip-rule="evenodd" transform="matrix(1 0 0 1 0 0)" d="M8.874E-06 842L595.5 842L595.5 842L595.5 -0.25L595.5 -0.25L8.874E-06 -0.25z" /></clipPath><clipPath id="183"><path id="" clip-rule="evenodd" transform="matrix(1 0 0 1 0 0)" d="M8.874E-06 842L595.5 842L595.5 842L595.5 -0.25L595.5 -0.25L8.874E-06 -0.25z" /></clipPath><clipPath id="184"><path id="" clip-rule="evenodd" transform="matrix(1 0 0 1 0 0)" d="M8.874E-06 842L595.5 842L595.5 842L595.5 -0.25L595.5 -0.25L8.874E-06 -0.25z" /></clipPath><clipPath id="185"><path id="" clip-rule="evenodd" transform="matrix(1 0 0 1 0 0)" d="M8.874E-06 842L595.5 842L595.5 842L595.5 -0.25L595.5 -0.25L8.874E-06 -0.25z" /></clipPath><clipPath id="186"><path id="" clip-rule="evenodd" transform="matrix(1 0 0 1 0 0)" d="M8.874E-06 842L595.5 842L595.5 842L595.5 -0.25L595.5 -0.25L8.874E-06 -0.25z" /></clipPath><clipPath id="187"><path id="" clip-rule="evenodd" transform="matrix(1 0 0 1 0 0)" d="M8.874E-06 842L595.5 842L595.5 842L595.5 -0.25L595.5 -0.25L8.874E-06 -0.25z" /></clipPath><clipPath id="188"><path id="" clip-rule="evenodd" transform="matrix(1 0 0 1 0 0)" d="M8.874E-06 842L595.5 842L595.5 842L595.5 -0.25L595.5 -0.25L8.874E-06 -0.25z" /></clipPath><clipPath id="189"><path id="" clip-rule="evenodd" transform="matrix(1 0 0 1 0 0)" d="M8.874E-06 842L595.5 842L595.5 842L595.5 -0.25L595.5 -0.25L8.874E-06 -0.25z" /></clipPath><clipPath id="190"><path id="" clip-rule="evenodd" transform="matrix(1 0 0 1 0 0)" d="M8.874E-06 842L595.5 842L595.5 842L595.5 -0.25L595.5 -0.25L8.874E-06 -0.25z" /></clipPath><clipPath id="191"><path id="" clip-rule="evenodd" transform="matrix(1 0 0 1 0 0)" d="M8.874E-06 842L595.5 842L595.5 842L595.5 -0.25L595.5 -0.25L8.874E-06 -0.25z" /></clipPath><clipPath id="192"><path id="" clip-rule="evenodd" transform="matrix(1 0 0 1 0 0)" d="M8.874E-06 842L595.5 842L595.5 842L595.5 -0.25L595.5 -0.25L8.874E-06 -0.25z" /></clipPath><clipPath id="193"><path id="" clip-rule="evenodd" transform="matrix(1 0 0 1 0 0)" d="M8.874E-06 842L595.5 842L595.5 842L595.5 -0.25L595.5 -0.25L8.874E-06 -0.25z" /></clipPath><clipPath id="194"><path id="" clip-rule="evenodd" transform="matrix(1 0 0 1 0 0)" d="M8.874E-06 842L595.5 842L595.5 842L595.5 -0.25L595.5 -0.25L8.874E-06 -0.25z" /></clipPath><clipPath id="195"><path id="" clip-rule="evenodd" transform="matrix(1 0 0 1 0 0)" d="M8.874E-06 842L595.5 842L595.5 842L595.5 -0.25L595.5 -0.25L8.874E-06 -0.25z" /></clipPath><clipPath id="196"><path id="" clip-rule="evenodd" transform="matrix(1 0 0 1 0 0)" d="M8.874E-06 842L595.5 842L595.5 842L595.5 -0.25L595.5 -0.25L8.874E-06 -0.25z" /></clipPath><clipPath id="197"><path id="" clip-rule="evenodd" transform="matrix(1 0 0 1 0 0)" d="M8.874E-06 842L595.5 842L595.5 842L595.5 -0.25L595.5 -0.25L8.874E-06 -0.25z" /></clipPath><clipPath id="198"><path id="" clip-rule="evenodd" transform="matrix(1 0 0 1 0 0)" d="M8.874E-06 842L595.5 842L595.5 842L595.5 -0.25L595.5 -0.25L8.874E-06 -0.25z" /></clipPath><clipPath id="199"><path id="" clip-rule="evenodd" transform="matrix(1 0 0 1 0 0)" d="M8.874E-06 842L595.5 842L595.5 842L595.5 -0.25L595.5 -0.25L8.874E-06 -0.25z" /></clipPath><clipPath id="200"><path id="" clip-rule="evenodd" transform="matrix(1 0 0 1 0 0)" d="M8.874E-06 842L595.5 842L595.5 842L595.5 -0.25L595.5 -0.25L8.874E-06 -0.25z" /></clipPath><clipPath id="201"><path id="" clip-rule="evenodd" transform="matrix(1 0 0 1 0 0)" d="M8.874E-06 842L595.5 842L595.5 842L595.5 -0.25L595.5 -0.25L8.874E-06 -0.25z" /></clipPath><clipPath id="202"><path id="" clip-rule="evenodd" transform="matrix(1 0 0 1 0 0)" d="M8.874E-06 842L595.5 842L595.5 842L595.5 -0.25L595.5 -0.25L8.874E-06 -0.25z" /></clipPath><clipPath id="203"><path id="" clip-rule="evenodd" transform="matrix(1 0 0 1 0 0)" d="M8.874E-06 842L595.5 842L595.5 842L595.5 -0.25L595.5 -0.25L8.874E-06 -0.25z" /></clipPath><clipPath id="204"><path id="" clip-rule="evenodd" transform="matrix(1 0 0 1 0 0)" d="M8.874E-06 842L595.5 842L595.5 842L595.5 -0.25L595.5 -0.25L8.874E-06 -0.25z" /></clipPath><clipPath id="205"><path id="" clip-rule="evenodd" transform="matrix(1 0 0 1 0 0)" d="M8.874E-06 842L595.5 842L595.5 842L595.5 -0.25L595.5 -0.25L8.874E-06 -0.25z" /></clipPath><clipPath id="206"><path id="" clip-rule="evenodd" transform="matrix(1 0 0 1 0 0)" d="M8.874E-06 842L595.5 842L595.5 842L595.5 -0.25L595.5 -0.25L8.874E-06 -0.25z" /></clipPath><clipPath id="207"><path id="" clip-rule="evenodd" transform="matrix(1 0 0 1 0 0)" d="M8.874E-06 842L595.5 842L595.5 842L595.5 -0.25L595.5 -0.25L8.874E-06 -0.25z" /></clipPath><clipPath id="208"><path id="" clip-rule="evenodd" transform="matrix(1 0 0 1 0 0)" d="M8.874E-06 842L595.5 842L595.5 842L595.5 -0.25L595.5 -0.25L8.874E-06 -0.25z" /></clipPath><clipPath id="209"><path id="" clip-rule="evenodd" transform="matrix(1 0 0 1 0 0)" d="M8.874E-06 842L595.5 842L595.5 842L595.5 -0.25L595.5 -0.25L8.874E-06 -0.25z" /></clipPath><clipPath id="210"><path id="" clip-rule="evenodd" transform="matrix(1 0 0 1 0 0)" d="M8.874E-06 842L595.5 842L595.5 842L595.5 -0.25L595.5 -0.25L8.874E-06 -0.25z" /></clipPath><clipPath id="211"><path id="" clip-rule="evenodd" transform="matrix(1 0 0 1 0 0)" d="M8.874E-06 842L595.5 842L595.5 842L595.5 -0.25L595.5 -0.25L8.874E-06 -0.25z" /></clipPath><clipPath id="212"><path id="" clip-rule="evenodd" transform="matrix(1 0 0 1 0 0)" d="M8.874E-06 842L595.5 842L595.5 842L595.5 -0.25L595.5 -0.25L8.874E-06 -0.25z" /></clipPath><clipPath id="213"><path id="" clip-rule="evenodd" transform="matrix(1 0 0 1 0 0)" d="M8.874E-06 842L595.5 842L595.5 842L595.5 -0.25L595.5 -0.25L8.874E-06 -0.25z" /></clipPath><clipPath id="214"><path id="" clip-rule="evenodd" transform="matrix(1 0 0 1 0 0)" d="M8.874E-06 842L595.5 842L595.5 842L595.5 -0.25L595.5 -0.25L8.874E-06 -0.25z" /></clipPath><clipPath id="215"><path id="" clip-rule="evenodd" transform="matrix(1 0 0 1 0 0)" d="M8.874E-06 842L595.5 842L595.5 842L595.5 -0.25L595.5 -0.25L8.874E-06 -0.25z" /></clipPath><clipPath id="216"><path id="" clip-rule="evenodd" transform="matrix(1 0 0 1 0 0)" d="M8.874E-06 842L595.5 842L595.5 842L595.5 -0.25L595.5 -0.25L8.874E-06 -0.25z" /></clipPath><clipPath id="217"><path id="" clip-rule="evenodd" transform="matrix(1 0 0 1 0 0)" d="M8.874E-06 842L595.5 842L595.5 842L595.5 -0.25L595.5 -0.25L8.874E-06 -0.25z" /></clipPath><clipPath id="218"><path id="" clip-rule="evenodd" transform="matrix(1 0 0 1 0 0)" d="M8.874E-06 842L595.5 842L595.5 842L595.5 -0.25L595.5 -0.25L8.874E-06 -0.25z" /></clipPath><clipPath id="219"><path id="" clip-rule="evenodd" transform="matrix(1 0 0 1 0 0)" d="M8.874E-06 842L595.5 842L595.5 842L595.5 -0.25L595.5 -0.25L8.874E-06 -0.25z" /></clipPath><clipPath id="220"><path id="" clip-rule="evenodd" transform="matrix(1 0 0 1 0 0)" d="M8.874E-06 842L595.5 842L595.5 842L595.5 -0.25L595.5 -0.25L8.874E-06 -0.25z" /></clipPath><clipPath id="221"><path id="" clip-rule="evenodd" transform="matrix(1 0 0 1 0 0)" d="M8.874E-06 842L595.5 842L595.5 842L595.5 -0.25L595.5 -0.25L8.874E-06 -0.25z" /></clipPath><clipPath id="222"><path id="" clip-rule="evenodd" transform="matrix(1 0 0 1 0 0)" d="M8.874E-06 842L595.5 842L595.5 842L595.5 -0.25L595.5 -0.25L8.874E-06 -0.25z" /></clipPath><clipPath id="223"><path id="" clip-rule="evenodd" transform="matrix(1 0 0 1 0 0)" d="M8.874E-06 842L595.5 842L595.5 842L595.5 -0.25L595.5 -0.25L8.874E-06 -0.25z" /></clipPath><clipPath id="224"><path id="" clip-rule="evenodd" transform="matrix(1 0 0 1 0 0)" d="M8.874E-06 842L595.5 842L595.5 842L595.5 -0.25L595.5 -0.25L8.874E-06 -0.25z" /></clipPath><clipPath id="225"><path id="" clip-rule="evenodd" transform="matrix(1 0 0 1 0 0)" d="M8.874E-06 842L595.5 842L595.5 842L595.5 -0.25L595.5 -0.25L8.874E-06 -0.25z" /></clipPath><clipPath id="226"><path id="" clip-rule="evenodd" transform="matrix(1 0 0 1 0 0)" d="M8.874E-06 842L595.5 842L595.5 842L595.5 -0.25L595.5 -0.25L8.874E-06 -0.25z" /></clipPath><clipPath id="227"><path id="" clip-rule="evenodd" transform="matrix(1 0 0 1 0 0)" d="M8.874E-06 842L595.5 842L595.5 842L595.5 -0.25L595.5 -0.25L8.874E-06 -0.25z" /></clipPath><clipPath id="228"><path id="" clip-rule="evenodd" transform="matrix(1 0 0 1 0 0)" d="M8.874E-06 842L595.5 842L595.5 842L595.5 -0.25L595.5 -0.25L8.874E-06 -0.25z" /></clipPath><clipPath id="229"><path id="" clip-rule="evenodd" transform="matrix(1 0 0 1 0 0)" d="M8.874E-06 842L595.5 842L595.5 842L595.5 -0.25L595.5 -0.25L8.874E-06 -0.25z" /></clipPath><clipPath id="230"><path id="" clip-rule="evenodd" transform="matrix(1 0 0 1 0 0)" d="M8.874E-06 842L595.5 842L595.5 842L595.5 -0.25L595.5 -0.25L8.874E-06 -0.25z" /></clipPath><clipPath id="231"><path id="" clip-rule="evenodd" transform="matrix(1 0 0 1 0 0)" d="M8.874E-06 842L595.5 842L595.5 842L595.5 -0.25L595.5 -0.25L8.874E-06 -0.25z" /></clipPath><clipPath id="232"><path id="" clip-rule="evenodd" transform="matrix(1 0 0 1 0 0)" d="M8.874E-06 842L595.5 842L595.5 842L595.5 -0.25L595.5 -0.25L8.874E-06 -0.25z" /></clipPath><clipPath id="233"><path id="" clip-rule="evenodd" transform="matrix(1 0 0 1 0 0)" d="M8.874E-06 842L595.5 842L595.5 842L595.5 -0.25L595.5 -0.25L8.874E-06 -0.25z" /></clipPath><clipPath id="234"><path id="" clip-rule="evenodd" transform="matrix(1 0 0 1 0 0)" d="M8.874E-06 842L595.5 842L595.5 842L595.5 -0.25L595.5 -0.25L8.874E-06 -0.25z" /></clipPath><clipPath id="235"><path id="" clip-rule="evenodd" transform="matrix(1 0 0 1 0 0)" d="M8.874E-06 842L595.5 842L595.5 842L595.5 -0.25L595.5 -0.25L8.874E-06 -0.25z" /></clipPath><clipPath id="236"><path id="" clip-rule="evenodd" transform="matrix(1 0 0 1 0 0)" d="M8.874E-06 842L595.5 842L595.5 842L595.5 -0.25L595.5 -0.25L8.874E-06 -0.25z" /></clipPath><clipPath id="237"><path id="" clip-rule="evenodd" transform="matrix(1 0 0 1 0 0)" d="M8.874E-06 842L595.5 842L595.5 842L595.5 -0.25L595.5 -0.25L8.874E-06 -0.25z" /></clipPath><clipPath id="238"><path id="" clip-rule="evenodd" transform="matrix(1 0 0 1 0 0)" d="M8.874E-06 842L595.5 842L595.5 842L595.5 -0.25L595.5 -0.25L8.874E-06 -0.25z" /></clipPath><clipPath id="239"><path id="" clip-rule="evenodd" transform="matrix(1 0 0 1 0 0)" d="M8.874E-06 842L595.5 842L595.5 842L595.5 -0.25L595.5 -0.25L8.874E-06 -0.25z" /></clipPath><clipPath id="240"><path id="" clip-rule="evenodd" transform="matrix(1 0 0 1 0 0)" d="M8.874E-06 842L595.5 842L595.5 842L595.5 -0.25L595.5 -0.25L8.874E-06 -0.25z" /></clipPath><clipPath id="241"><path id="" clip-rule="evenodd" transform="matrix(1 0 0 1 0 0)" d="M8.874E-06 842L595.5 842L595.5 842L595.5 -0.25L595.5 -0.25L8.874E-06 -0.25z" /></clipPath><clipPath id="242"><path id="" clip-rule="evenodd" transform="matrix(1 0 0 1 0 0)" d="M-2.37E-06 841.9998L595.5 841.9998L595.5 841.9998L595.5 -0.2502441L595.5 -0.2502441L-2.37E-06 -0.2502441z" /></clipPath></defs><g transform="matrix(1.333333 0 0 1.333333 0 0)"><g clip-path="url(#1)"><g clip-path="url(#2)"></g><g clip-path="url(#3)"></g><g clip-path="url(#4)"></g><g clip-path="url(#5)"></g><g clip-path="url(#6)"></g><g clip-path="url(#7)"></g><g clip-path="url(#8)"></g><g clip-path="url(#9)"></g><g clip-path="url(#10)"></g><g clip-path="url(#11)"></g><g clip-path="url(#12)"></g><g clip-path="url(#13)"></g><g clip-path="url(#14)"></g><g clip-path="url(#15)"></g><g clip-path="url(#16)"></g><g clip-path="url(#17)"></g><g clip-path="url(#18)"></g><g clip-path="url(#19)"></g><g clip-path="url(#20)"></g><g clip-path="url(#21)"></g><g clip-path="url(#22)"></g><g clip-path="url(#23)"></g><g clip-path="url(#24)"></g><g clip-path="url(#25)"></g><g clip-path="url(#26)"></g><g clip-path="url(#27)"></g><g clip-path="url(#28)"></g><g clip-path="url(#29)"></g><g clip-path="url(#30)"></g><g clip-path="url(#31)"></g><g clip-path="url(#32)"></g><g clip-path="url(#33)"></g><g clip-path="url(#34)"></g><g clip-path="url(#35)"></g><g clip-path="url(#36)"></g><g clip-path="url(#37)"></g><g clip-path="url(#38)"></g><g clip-path="url(#39)"></g><g clip-path="url(#40)"></g><g clip-path="url(#41)"></g><g clip-path="url(#42)"></g><g clip-path="url(#43)"></g><g clip-path="url(#44)"></g><g clip-path="url(#45)"></g><g clip-path="url(#46)"></g><g clip-path="url(#47)"></g><g clip-path="url(#48)"></g><g clip-path="url(#49)"></g><g clip-path="url(#50)"></g><g clip-path="url(#51)"></g><g clip-path="url(#52)"></g><g clip-path="url(#53)"></g><g clip-path="url(#54)"></g><g clip-path="url(#55)"></g><g clip-path="url(#56)"></g><g clip-path="url(#57)"></g><g clip-path="url(#58)"></g><g clip-path="url(#59)"></g><g clip-path="url(#60)"></g><g clip-path="url(#61)"></g><g clip-path="url(#62)"></g><g clip-path="url(#63)"></g><g clip-path="url(#64)"></g><g clip-path="url(#65)"></g><g clip-path="url(#66)"></g><g clip-path="url(#67)"></g><g clip-path="url(#68)"></g><g clip-path="url(#69)"></g><g clip-path="url(#70)"></g><g clip-path="url(#71)"></g><g clip-path="url(#72)"></g><g clip-path="url(#73)"></g><g clip-path="url(#74)"></g><g clip-path="url(#75)"></g><g clip-path="url(#76)"></g><g clip-path="url(#77)"></g><g clip-path="url(#78)"></g><g clip-path="url(#79)"></g><g clip-path="url(#80)"></g><g clip-path="url(#81)"></g><g clip-path="url(#82)"></g><g clip-path="url(#83)"></g><g clip-path="url(#84)"></g><g clip-path="url(#85)"></g><g clip-path="url(#86)"></g><g clip-path="url(#87)"></g><g clip-path="url(#88)"></g><g clip-path="url(#89)"></g><g clip-path="url(#90)"></g><g clip-path="url(#91)"></g><g clip-path="url(#92)"></g><g clip-path="url(#93)"></g><g clip-path="url(#94)"></g><g clip-path="url(#95)"></g><g clip-path="url(#96)"></g><g clip-path="url(#97)"></g><g clip-path="url(#98)"></g><g clip-path="url(#99)"></g><g clip-path="url(#100)"></g><g clip-path="url(#101)"></g><g clip-path="url(#102)"></g><g clip-path="url(#103)"></g><g clip-path="url(#104)"></g><g clip-path="url(#105)"></g><g clip-path="url(#106)"></g><g clip-path="url(#107)"></g><g clip-path="url(#108)"></g><g clip-path="url(#109)"></g><g clip-path="url(#110)"></g><g clip-path="url(#111)"></g><g clip-path="url(#112)"></g><g clip-path="url(#113)"></g><g clip-path="url(#114)"></g><g clip-path="url(#115)"></g><g clip-path="url(#116)"></g><g clip-path="url(#117)"></g><g clip-path="url(#118)"></g><g clip-path="url(#119)"></g><g clip-path="url(#120)"></g><g clip-path="url(#121)"></g><g clip-path="url(#122)"></g><g clip-path="url(#123)"></g><g clip-path="url(#124)"></g><g clip-path="url(#125)"></g><g clip-path="url(#126)"></g><g clip-path="url(#127)"></g><g clip-path="url(#128)"></g><g clip-path="url(#129)"></g><g clip-path="url(#130)"></g><g clip-path="url(#131)"></g><g clip-path="url(#132)"></g><g clip-path="url(#133)"></g><g clip-path="url(#134)"></g><g clip-path="url(#135)"></g><g clip-path="url(#136)"></g><g clip-path="url(#137)"></g><g clip-path="url(#138)"></g><g clip-path="url(#139)"></g><g clip-path="url(#140)"></g><g clip-path="url(#141)"></g><g clip-path="url(#142)"></g><g clip-path="url(#143)"></g><g clip-path="url(#144)"></g><path id="408" transform="matrix(1 0 0 -1 0 842)" d="M213.28 535.97L318.4 535.97L318.4 535.97L318.4 536.72L318.4 536.72L213.28 536.72z" stroke="none" fill="#0563C1" fill-rule="evenodd" /><g clip-path="url(#145)"></g><g clip-path="url(#146)"></g><g clip-path="url(#147)"></g><g clip-path="url(#148)"></g><g clip-path="url(#149)"></g><g clip-path="url(#150)"></g><g clip-path="url(#151)"></g><g clip-path="url(#152)"></g><g clip-path="url(#153)"></g><g clip-path="url(#154)"></g><g clip-path="url(#155)"></g><g clip-path="url(#156)"></g><g clip-path="url(#157)"></g><g clip-path="url(#158)"></g><g clip-path="url(#159)"></g><g clip-path="url(#160)"></g><g clip-path="url(#161)"></g><g clip-path="url(#162)"></g><g clip-path="url(#163)"></g><g clip-path="url(#164)"></g><g clip-path="url(#165)"></g><g clip-path="url(#166)"></g><path id="476" transform="matrix(1 0 0 -1 0 842)" d="M205.75 502.2L357.45 502.2L357.45 502.2L357.45 502.95L357.45 502.95L205.75 502.95z" stroke="none" fill="#0563C1" fill-rule="evenodd" /><g clip-path="url(#167)"></g><g clip-path="url(#168)"></g><g clip-path="url(#169)"></g><g clip-path="url(#170)"></g><g clip-path="url(#171)"></g><g clip-path="url(#172)"></g><g clip-path="url(#173)"></g><g clip-path="url(#174)"></g><g clip-path="url(#175)"></g><g clip-path="url(#176)"></g><g clip-path="url(#177)"></g><path id="532" transform="matrix(1 0 0 -1 0 842)" d="M368.73 483.42L522.68 483.42L522.68 483.42L522.68 484.17L522.68 484.17L368.73 484.17z" stroke="none" fill="#0563C1" fill-rule="evenodd" /><g clip-path="url(#178)"></g><g clip-path="url(#179)"></g><g clip-path="url(#180)"></g><g clip-path="url(#181)"></g><path id="566" transform="matrix(1 0 0 -1 0 842)" d="M181.73 464.65L321.4 464.65L321.4 464.65L321.4 465.4L321.4 465.4L181.73 465.4z" stroke="none" fill="#0563C1" fill-rule="evenodd" /><g clip-path="url(#182)"></g><g clip-path="url(#183)"></g><g clip-path="url(#184)"></g><g clip-path="url(#185)"></g><g clip-path="url(#186)"></g><g clip-path="url(#187)"></g><g clip-path="url(#188)"></g><g clip-path="url(#189)"></g><g clip-path="url(#190)"></g><g clip-path="url(#191)"></g><g clip-path="url(#192)"></g><g clip-path="url(#193)"></g><g clip-path="url(#194)"></g><g clip-path="url(#195)"></g><g clip-path="url(#196)"></g><g clip-path="url(#197)"></g><g clip-path="url(#198)"></g><g clip-path="url(#199)"></g><g clip-path="url(#200)"></g><g clip-path="url(#201)"></g><g clip-path="url(#202)"></g><g clip-path="url(#203)"></g><g clip-path="url(#204)"></g><g clip-path="url(#205)"></g><g clip-path="url(#206)"></g><g clip-path="url(#207)"></g><g clip-path="url(#208)"></g><g clip-path="url(#209)"></g><g clip-path="url(#210)"></g><g clip-path="url(#211)"></g><g clip-path="url(#212)"></g><g clip-path="url(#213)"></g><g clip-path="url(#214)"></g><g clip-path="url(#215)"></g><g clip-path="url(#216)"></g><g clip-path="url(#217)"></g><g clip-path="url(#218)"></g><g clip-path="url(#219)"></g><g clip-path="url(#220)"></g><g clip-path="url(#221)"></g><g clip-path="url(#222)"></g><g clip-path="url(#223)"></g><g clip-path="url(#224)"></g><g clip-path="url(#225)"></g><g clip-path="url(#226)"></g><g clip-path="url(#227)"></g><g clip-path="url(#228)"></g><g clip-path="url(#229)"></g><g clip-path="url(#230)"></g><g clip-path="url(#231)"></g><g clip-path="url(#232)"></g><g clip-path="url(#233)"></g><g clip-path="url(#234)"></g><g clip-path="url(#235)"></g><g clip-path="url(#236)"></g><g clip-path="url(#237)"></g><g clip-path="url(#238)"></g><g clip-path="url(#239)"></g><g clip-path="url(#240)"></g><g clip-path="url(#241)"></g><g clip-path="url(#242)"><g transform="matrix(0.7544925 0 0 0.7504736 20.75 108.2)"><g transform="matrix(1 0 0 1 0 0)"><image x="0" y="0" xlink:href="img_01.png" width="132" height="739" /></g></g></g></g></g></svg>